<?xml version="1.0" standalone="no"?>
<!DOCTYPE svg PUBLIC "-//W3C//DTD SVG 20010904//EN"
 "http://www.w3.org/TR/2001/REC-SVG-20010904/DTD/svg10.dtd">
<svg version="1.0" xmlns="http://www.w3.org/2000/svg"
 width="4096.000000pt" height="4096.000000pt" viewBox="0 0 4096.000000 4096.000000"
 preserveAspectRatio="xMidYMid meet">
<metadata>
Created by potrace 1.16, written by Peter Selinger 2001-2019
</metadata>
<g transform="translate(0.000000,4096.000000) scale(0.100000,-0.100000)"
fill="#000000" stroke="none">
<path d="M0 20480 l0 -20480 20480 0 20480 0 0 20480 0 20480 -20480 0 -20480
0 0 -20480z m18963 12753 c-67 -2 -179 -2 -250 0 -70 1 -15 3 122 3 138 0 195
-2 128 -3z m745 0 c-71 -2 -185 -2 -255 0 -71 1 -13 3 127 3 140 0 198 -2 128
-3z m-1260 -20 c-32 -2 -86 -2 -120 0 -35 2 -9 3 57 3 66 0 94 -1 63 -3z
m1650 0 c-32 -2 -86 -2 -120 0 -35 2 -9 3 57 3 66 0 94 -1 63 -3z m-1930 -20
c-26 -2 -71 -2 -100 0 -29 2 -8 3 47 3 55 0 79 -1 53 -3z m2175 0 c-23 -2 -64
-2 -90 0 -26 2 -7 3 42 3 50 0 71 -1 48 -3z m-2416 -20 c-20 -2 -52 -2 -70 0
-17 2 0 4 38 4 39 0 53 -2 32 -4z m2631 0 c-21 -2 -57 -2 -80 0 -24 2 -7 4 37
4 44 0 63 -2 43 -4z m-2811 -20 c-20 -2 -52 -2 -70 0 -17 2 0 4 38 4 39 0 53
-2 32 -4z m2986 0 c-18 -2 -48 -2 -65 0 -18 2 -4 4 32 4 36 0 50 -2 33 -4z
m-3145 -20 c-15 -2 -42 -2 -60 0 -18 2 -6 4 27 4 33 0 48 -2 33 -4z m3310 0
c-15 -2 -42 -2 -60 0 -18 2 -6 4 27 4 33 0 48 -2 33 -4z m-3470 -20 c-16 -2
-40 -2 -55 0 -16 2 -3 4 27 4 30 0 43 -2 28 -4z m3615 0 c-13 -2 -35 -2 -50 0
-16 2 -5 4 22 4 28 0 40 -2 28 -4z m-3750 -20 c-13 -2 -35 -2 -50 0 -16 2 -5
4 22 4 28 0 40 -2 28 -4z m3885 0 c-16 -2 -40 -2 -55 0 -16 2 -3 4 27 4 30 0
43 -2 28 -4z m-4015 -20 c-13 -2 -35 -2 -50 0 -16 2 -5 4 22 4 28 0 40 -2 28
-4z m4150 0 c-13 -2 -35 -2 -50 0 -16 2 -5 4 22 4 28 0 40 -2 28 -4z m-4275
-20 c-10 -2 -28 -2 -40 0 -13 2 -5 4 17 4 22 1 32 -1 23 -4z m4385 0 c-13 -2
-33 -2 -45 0 -13 2 -3 4 22 4 25 0 35 -2 23 -4z m-4505 -20 c-10 -2 -26 -2
-35 0 -10 3 -2 5 17 5 19 0 27 -2 18 -5z m4620 0 c-10 -2 -28 -2 -40 0 -13 2
-5 4 17 4 22 1 32 -1 23 -4z m-4730 -20 c-10 -2 -28 -2 -40 0 -13 2 -5 4 17 4
22 1 32 -1 23 -4z m4830 0 c-10 -2 -26 -2 -35 0 -10 3 -2 5 17 5 19 0 27 -2
18 -5z m-4935 -20 c-7 -2 -21 -2 -30 0 -10 3 -4 5 12 5 17 0 24 -2 18 -5z
m5035 0 c-10 -2 -26 -2 -35 0 -10 3 -2 5 17 5 19 0 27 -2 18 -5z m-5120 -20
c-10 -2 -28 -2 -40 0 -13 2 -5 4 17 4 22 1 32 -1 23 -4z m5230 0 c-10 -2 -28
-2 -40 0 -13 2 -5 4 17 4 22 1 32 -1 23 -4z m-5335 -20 c-7 -2 -21 -2 -30 0
-10 3 -4 5 12 5 17 0 24 -2 18 -5z m5430 0 c-7 -2 -21 -2 -30 0 -10 3 -4 5 12
5 17 0 24 -2 18 -5z m-5520 -20 c-7 -2 -21 -2 -30 0 -10 3 -4 5 12 5 17 0 24
-2 18 -5z m5610 0 c-7 -2 -21 -2 -30 0 -10 3 -4 5 12 5 17 0 24 -2 18 -5z
m-5700 -20 c-7 -2 -21 -2 -30 0 -10 3 -4 5 12 5 17 0 24 -2 18 -5z m5790 0
c-7 -2 -21 -2 -30 0 -10 3 -4 5 12 5 17 0 24 -2 18 -5z m-5880 -20 c-7 -2 -21
-2 -30 0 -10 3 -4 5 12 5 17 0 24 -2 18 -5z m5965 0 c-10 -2 -26 -2 -35 0 -10
3 -2 5 17 5 19 0 27 -2 18 -5z m-6045 -20 c-7 -2 -21 -2 -30 0 -10 3 -4 5 12
5 17 0 24 -2 18 -5z m6120 0 c-7 -2 -19 -2 -25 0 -7 3 -2 5 12 5 14 0 19 -2
13 -5z m-6210 -20 c-7 -2 -21 -2 -30 0 -10 3 -4 5 12 5 17 0 24 -2 18 -5z
m6290 0 c-7 -2 -19 -2 -25 0 -7 3 -2 5 12 5 14 0 19 -2 13 -5z m-6370 -20 c-7
-2 -19 -2 -25 0 -7 3 -2 5 12 5 14 0 19 -2 13 -5z m6450 0 c-7 -2 -19 -2 -25
0 -7 3 -2 5 12 5 14 0 19 -2 13 -5z m-6530 -20 c-7 -2 -19 -2 -25 0 -7 3 -2 5
12 5 14 0 19 -2 13 -5z m6610 0 c-7 -2 -19 -2 -25 0 -7 3 -2 5 12 5 14 0 19
-2 13 -5z m-6680 -20 c-7 -2 -21 -2 -30 0 -10 3 -4 5 12 5 17 0 24 -2 18 -5z
m6750 0 c-7 -2 -19 -2 -25 0 -7 3 -2 5 12 5 14 0 19 -2 13 -5z m-6826 -19 c-3
-3 -12 -4 -19 -1 -8 3 -5 6 6 6 11 1 17 -2 13 -5z m6906 -1 c-7 -2 -19 -2 -25
0 -7 3 -2 5 12 5 14 0 19 -2 13 -5z m-6980 -20 c-7 -2 -19 -2 -25 0 -7 3 -2 5
12 5 14 0 19 -2 13 -5z m7050 0 c-7 -2 -19 -2 -25 0 -7 3 -2 5 12 5 14 0 19
-2 13 -5z m-7116 -19 c-3 -3 -12 -4 -19 -1 -8 3 -5 6 6 6 11 1 17 -2 13 -5z
m7186 -1 c-7 -2 -19 -2 -25 0 -7 3 -2 5 12 5 14 0 19 -2 13 -5z m-7260 -20
c-7 -2 -19 -2 -25 0 -7 3 -2 5 12 5 14 0 19 -2 13 -5z m7330 0 c-7 -2 -19 -2
-25 0 -7 3 -2 5 12 5 14 0 19 -2 13 -5z m-7396 -19 c-3 -3 -12 -4 -19 -1 -8 3
-5 6 6 6 11 1 17 -2 13 -5z m7466 -1 c-7 -2 -19 -2 -25 0 -7 3 -2 5 12 5 14 0
19 -2 13 -5z m-7526 -19 c-3 -3 -12 -4 -19 -1 -8 3 -5 6 6 6 11 1 17 -2 13 -5z
m7590 0 c-3 -3 -12 -4 -19 -1 -8 3 -5 6 6 6 11 1 17 -2 13 -5z m60 -20 c-3 -3
-12 -4 -19 -1 -8 3 -5 6 6 6 11 1 17 -2 13 -5z m-7784 -21 c-7 -2 -19 -2 -25
0 -7 3 -2 5 12 5 14 0 19 -2 13 -5z m4165 0 c-136 -2 -361 -2 -500 0 -139 1
-28 2 247 2 275 0 389 -1 253 -2z m3685 0 c-7 -2 -19 -2 -25 0 -7 3 -2 5 12 5
14 0 19 -2 13 -5z m-4605 -20 c-38 -2 -98 -2 -135 0 -38 2 -7 3 67 3 74 0 105
-1 68 -3z m1475 0 c-34 -2 -93 -2 -130 0 -37 2 -9 3 62 3 72 0 102 -1 68 -3z
m3194 1 c-3 -3 -12 -4 -19 -1 -8 3 -5 6 6 6 11 1 17 -2 13 -5z m-4979 -21
c-27 -2 -69 -2 -95 0 -27 2 -5 3 47 3 52 0 74 -1 48 -3z m2060 0 c-27 -2 -69
-2 -95 0 -27 2 -5 3 47 3 52 0 74 -1 48 -3z m2979 1 c-3 -3 -12 -4 -19 -1 -8
3 -5 6 6 6 11 1 17 -2 13 -5z m-8160 -20 c-3 -3 -12 -4 -19 -1 -8 3 -5 6 6 6
11 1 17 -2 13 -5z m2880 -1 c-20 -2 -52 -2 -70 0 -17 2 0 4 38 4 39 0 53 -2
32 -4z m2511 0 c-21 -2 -55 -2 -75 0 -21 2 -4 4 37 4 41 0 58 -2 38 -4z m2829
1 c-3 -3 -12 -4 -19 -1 -8 3 -5 6 6 6 11 1 17 -2 13 -5z m-8280 -20 c-3 -3
-12 -4 -19 -1 -8 3 -5 6 6 6 11 1 17 -2 13 -5z m2760 -1 c-20 -2 -52 -2 -70 0
-17 2 0 4 38 4 39 0 53 -2 32 -4z m2870 0 c-20 -2 -52 -2 -70 0 -17 2 0 4 38
4 39 0 53 -2 32 -4z m2716 0 c-7 -2 -19 -2 -25 0 -7 3 -2 5 12 5 14 0 19 -2
13 -5z m-8406 -19 c-3 -3 -12 -4 -19 -1 -8 3 -5 6 6 6 11 1 17 -2 13 -5z
m2646 -1 c-13 -2 -35 -2 -50 0 -16 2 -5 4 22 4 28 0 40 -2 28 -4z m2367 -12
c69 -6 184 -15 255 -21 271 -23 676 -72 895 -109 148 -25 279 -48 348 -61 28
-5 73 -14 100 -19 62 -11 197 -39 247 -51 235 -54 454 -108 540 -131 39 -11
86 -24 105 -29 19 -5 67 -18 105 -30 39 -11 86 -25 105 -30 152 -42 634 -203
815 -272 72 -27 150 -56 174 -64 41 -15 322 -130 386 -159 17 -8 89 -39 160
-71 147 -64 518 -245 675 -329 251 -134 551 -302 600 -336 14 -9 41 -26 60
-36 33 -19 66 -39 280 -173 273 -170 770 -525 1034 -739 38 -31 86 -69 107
-86 80 -63 375 -313 439 -371 25 -22 92 -83 150 -135 141 -126 602 -589 748
-751 424 -472 713 -839 1097 -1395 53 -76 243 -370 265 -408 10 -16 50 -84 91
-150 77 -127 195 -333 286 -500 63 -118 318 -628 350 -700 12 -27 38 -86 58
-130 20 -44 48 -107 62 -140 107 -258 188 -457 203 -500 10 -27 33 -88 50
-135 72 -194 194 -564 259 -785 53 -182 107 -381 118 -435 3 -14 13 -54 23
-90 9 -36 22 -90 29 -120 7 -30 16 -74 21 -97 6 -24 14 -62 19 -85 5 -24 14
-64 20 -90 6 -27 15 -67 20 -90 11 -48 46 -240 62 -333 5 -33 14 -82 19 -110
5 -27 14 -83 20 -122 6 -40 15 -101 20 -135 9 -61 20 -145 40 -305 69 -561 99
-1226 81 -1795 -11 -324 -17 -439 -41 -723 -15 -174 -46 -469 -60 -560 -5 -33
-14 -96 -20 -140 -6 -44 -15 -105 -20 -135 -5 -30 -17 -100 -26 -155 -17 -110
-70 -388 -94 -500 -69 -312 -75 -336 -89 -390 -6 -22 -15 -58 -20 -80 -66
-293 -260 -916 -401 -1285 -29 -74 -55 -146 -60 -160 -8 -27 -103 -265 -125
-315 -7 -16 -27 -60 -44 -98 -17 -37 -31 -69 -31 -72 0 -7 -76 -173 -155 -340
-69 -147 -211 -427 -260 -515 -43 -78 -42 -55 5 95 17 55 43 154 58 220 25
110 27 136 25 315 -1 177 -4 204 -28 290 -14 52 -30 115 -35 140 -22 113 -99
290 -188 430 -128 202 -486 500 -773 641 -201 100 -680 398 -834 519 -90 71
-307 193 -426 240 -28 11 -101 45 -163 76 -122 60 -157 64 -178 18 -9 -19 -5
-31 26 -78 20 -30 61 -79 90 -108 101 -101 255 -358 336 -563 105 -262 190
-525 210 -645 44 -272 59 -453 49 -600 -19 -276 -32 -371 -69 -505 -13 -44
-26 -96 -30 -115 -9 -37 -58 -226 -84 -320 -73 -268 -282 -751 -404 -933 -27
-40 -75 -117 -107 -171 -31 -55 -99 -154 -149 -220 -51 -67 -107 -143 -126
-171 -18 -27 -96 -129 -174 -225 -356 -445 -413 -504 -788 -826 -263 -226
-480 -381 -642 -460 -43 -21 -80 -45 -83 -54 -2 -8 -11 -28 -19 -43 -7 -16
-14 -37 -14 -48 0 -38 46 -20 164 64 64 45 142 92 174 104 156 58 292 105 442
152 91 29 176 56 190 61 14 4 59 18 100 30 130 38 163 50 245 90 44 21 100 43
124 50 24 6 114 41 199 76 85 35 175 69 200 76 26 6 103 37 171 70 69 32 145
63 170 69 25 5 69 14 96 20 28 6 88 28 135 49 47 21 135 57 195 80 61 24 146
62 190 85 44 24 114 61 155 82 110 57 304 204 390 297 137 147 430 441 430
431 -1 -20 -317 -450 -489 -665 -661 -826 -1403 -1548 -2231 -2171 -181 -137
-260 -193 -264 -187 -1 1 -23 35 -49 74 -55 84 -137 164 -168 164 -23 0 -59
-26 -59 -42 0 -4 -19 -41 -43 -81 -24 -39 -54 -92 -66 -116 -28 -55 -106 -161
-225 -306 -50 -60 -109 -132 -130 -159 -44 -54 -73 -74 -306 -209 -306 -176
-902 -478 -1104 -558 -28 -11 -73 -31 -100 -44 -71 -33 -355 -151 -451 -187
-44 -16 -116 -43 -160 -60 -143 -53 -393 -138 -409 -138 -18 0 -31 89 -23 164
8 82 40 136 145 244 130 134 217 190 373 242 158 53 288 69 424 52 106 -13
125 -10 125 23 0 39 -52 49 -235 46 -165 -2 -205 -10 -360 -63 -101 -35 -143
-56 -213 -104 -81 -56 -256 -234 -284 -288 -92 -180 -45 -422 110 -561 77 -70
161 -124 202 -131 19 -4 60 -13 90 -21 30 -8 87 -19 125 -23 39 -5 88 -11 110
-14 22 -3 86 -11 143 -17 102 -12 134 -24 90 -33 -67 -14 -131 -26 -198 -36
-41 -7 -97 -16 -125 -21 -47 -8 -305 -23 -370 -21 -16 0 -70 6 -120 11 -49 6
-135 15 -190 20 -118 12 -175 22 -230 43 -75 29 -192 58 -261 64 -57 5 -89 1
-190 -24 -66 -16 -130 -35 -142 -41 -28 -15 -28 -15 -27 17 l0 27 -3550 5
c-2645 4 -3559 8 -3585 17 -19 6 -60 17 -90 23 -131 29 -251 77 -403 164 -103
58 -161 104 -311 245 -49 46 -108 92 -133 103 -24 10 -64 38 -90 61 -129 116
-227 216 -243 247 -10 19 -48 68 -84 109 -36 41 -66 78 -66 82 0 4 -28 39 -62
77 -35 39 -80 97 -100 129 -21 32 -58 85 -82 118 -25 33 -57 83 -72 110 -15
28 -44 74 -65 104 -22 30 -39 59 -39 64 0 6 -18 38 -40 71 -22 34 -46 90 -56
126 -9 36 -21 74 -27 85 -5 11 -14 33 -18 50 -4 16 -18 57 -30 90 -28 79 -49
160 -49 190 0 13 -9 48 -19 77 -10 29 -22 71 -26 93 -9 57 -24 158 -36 240
-13 91 -25 172 -39 265 -14 86 -14 107 -2 250 10 114 34 251 62 345 10 33 23
98 30 145 11 86 34 174 76 307 13 40 31 105 40 145 19 86 74 264 119 388 7 19
18 62 25 95 7 33 30 96 51 141 22 44 39 85 39 91 0 6 30 74 66 150 36 76 77
170 91 208 14 39 51 122 83 185 31 63 72 152 90 198 18 46 43 99 57 118 32 48
73 130 73 147 0 7 20 54 43 103 93 190 140 318 167 449 7 33 16 74 21 90 41
150 71 911 42 1068 -7 37 -17 95 -22 130 -25 165 -35 219 -58 312 -14 55 -29
124 -34 153 -5 29 -29 113 -53 185 -37 113 -62 191 -117 372 -42 139 -125 378
-169 491 -18 43 -48 129 -67 189 -89 278 -116 354 -147 405 -37 60 -75 149
-95 220 -9 32 -36 74 -95 142 -45 54 -96 116 -111 140 -139 207 -585 625 -925
868 -91 65 -207 152 -259 193 -61 49 -139 99 -225 143 -72 37 -149 79 -171 93
-22 14 -67 40 -100 57 -55 30 -57 33 -34 39 38 9 713 -2 794 -13 39 -6 104
-15 145 -22 41 -6 118 -15 170 -20 155 -15 168 -18 365 -99 55 -22 138 -54
185 -72 135 -50 369 -149 440 -187 166 -88 240 -128 303 -163 38 -22 70 -39
72 -39 10 0 260 -149 340 -203 197 -131 389 -302 569 -507 113 -130 143 -171
329 -455 149 -229 202 -325 322 -590 244 -538 312 -702 372 -890 19 -60 43
-135 53 -165 17 -49 76 -250 130 -443 21 -74 48 -168 80 -280 26 -91 49 -177
93 -347 19 -74 54 -200 76 -280 23 -80 45 -161 51 -180 5 -19 19 -69 31 -110
34 -118 60 -210 80 -280 37 -132 61 -216 69 -240 8 -26 25 -94 40 -165 5 -22
13 -73 19 -113 27 -178 37 -222 71 -308 35 -85 47 -126 71 -254 24 -122 53
-231 91 -335 22 -60 75 -217 119 -348 94 -284 126 -354 265 -586 232 -383 290
-460 457 -606 73 -62 188 -171 257 -240 69 -70 148 -145 177 -166 28 -21 82
-66 120 -99 37 -34 93 -75 123 -92 30 -17 98 -61 150 -98 171 -121 208 -138
365 -170 33 -7 98 -25 145 -40 217 -71 234 -72 795 -67 463 4 546 9 665 37 50
12 152 26 280 40 279 30 412 56 542 104 95 35 113 41 228 75 188 55 256 78
365 122 66 26 167 70 225 97 58 27 175 77 260 112 85 34 160 66 165 70 6 5 57
27 115 50 109 43 306 140 420 205 36 20 162 89 280 152 205 110 320 182 415
262 24 20 92 74 151 121 59 47 123 99 143 116 52 44 155 122 236 178 69 48
188 156 474 432 80 77 166 156 191 174 60 45 354 344 443 450 39 47 139 153
223 235 83 83 161 165 173 182 12 18 43 56 68 85 25 29 63 89 83 134 38 80
122 218 139 229 21 12 19 -16 -5 -81 -14 -38 -29 -78 -32 -89 -3 -11 -18 -40
-32 -65 -27 -46 -62 -135 -105 -267 -38 -117 -133 -295 -235 -438 -27 -38 -69
-104 -91 -145 -64 -114 -159 -243 -281 -378 -49 -54 -63 -73 -243 -312 -119
-159 -249 -314 -360 -430 -39 -41 -87 -95 -106 -120 -19 -24 -61 -75 -95 -112
-34 -38 -74 -92 -89 -121 -16 -28 -46 -74 -67 -100 -59 -75 -189 -290 -252
-416 -31 -63 -72 -140 -90 -170 -111 -188 -145 -252 -160 -306 -10 -33 -32
-96 -49 -140 l-32 -80 3 -183 c2 -196 6 -212 76 -365 14 -32 26 -62 26 -67 0
-4 18 -46 40 -91 22 -46 40 -88 40 -95 0 -7 12 -27 27 -45 15 -17 41 -59 58
-93 24 -48 37 -63 62 -71 18 -6 43 -21 57 -34 21 -20 77 -40 112 -41 20 0 25
32 9 56 -9 14 -25 24 -38 24 -13 0 -34 11 -46 24 -12 13 -35 26 -50 29 -21 4
-33 18 -51 58 -14 29 -35 65 -48 81 -13 15 -35 55 -49 90 -14 35 -28 68 -33
73 -4 6 -17 36 -29 68 -11 32 -30 75 -40 95 -48 95 -61 159 -61 309 0 135 2
149 29 221 16 42 39 111 51 152 12 41 28 82 35 90 21 25 169 288 233 415 69
134 151 269 219 360 25 33 59 84 75 113 17 29 55 80 87 115 31 34 71 82 90
107 19 25 65 77 101 115 124 129 238 265 398 479 88 116 188 243 222 281 94
105 207 259 293 402 43 71 97 155 121 188 71 99 161 282 211 430 26 77 62 168
81 202 19 33 50 110 70 170 71 213 105 299 132 333 39 50 54 84 50 111 -2 19
-10 25 -35 27 -28 3 -35 -1 -45 -25 -15 -35 -90 -129 -123 -155 -14 -11 -37
-41 -52 -66 -14 -26 -56 -92 -91 -146 -36 -55 -74 -122 -85 -150 -38 -95 -149
-232 -336 -416 -86 -85 -182 -186 -213 -225 -70 -87 -379 -401 -433 -440 -22
-16 -108 -94 -191 -174 -282 -272 -409 -387 -473 -430 -35 -24 -154 -116 -264
-205 -422 -339 -420 -337 -757 -514 -63 -33 -153 -82 -200 -109 -135 -78 -257
-138 -368 -182 -57 -23 -126 -53 -152 -66 -27 -14 -53 -25 -58 -25 -19 0 -34
77 -27 136 4 32 9 192 11 354 4 251 2 303 -11 346 -17 54 -48 90 -105 121
l-35 20 -3 212 -2 211 34 21 c31 18 86 105 86 137 0 5 18 45 40 88 22 43 40
85 40 94 0 9 6 24 13 35 8 11 22 44 31 74 17 51 17 58 1 108 -18 55 -125 274
-148 302 -7 9 -19 35 -25 59 -7 23 -17 60 -23 81 -7 23 -8 47 -3 58 4 10 11
65 16 123 4 58 12 143 18 190 43 342 42 477 -5 543 -8 12 -15 28 -15 37 0 9
-13 42 -30 73 -16 32 -30 64 -30 70 0 7 -9 29 -20 50 -11 20 -20 43 -20 50 0
7 -18 48 -40 91 -22 43 -40 83 -40 89 0 7 -7 26 -16 42 -38 72 -45 114 -40
223 6 125 21 275 31 315 11 41 -36 176 -112 325 -35 69 -63 129 -63 136 0 6
-7 25 -16 41 -35 66 -39 95 -46 405 -13 530 -31 799 -78 1128 -5 39 -14 102
-19 140 -6 37 -15 92 -21 122 -6 30 -15 80 -20 110 -5 30 -15 80 -21 110 -7
32 -13 137 -13 251 l-1 195 84 80 c46 43 112 106 145 139 34 33 81 73 104 89
23 16 42 32 42 36 0 14 245 249 304 290 11 8 62 56 112 105 89 87 158 153 257
242 27 24 52 41 58 38 5 -4 9 -101 9 -229 0 -187 2 -226 15 -236 15 -13 104
-15 1545 -38 256 -5 475 -5 488 0 l22 8 0 509 c0 395 -3 511 -12 519 -9 6
-262 14 -713 20 -385 6 -708 13 -717 17 -10 4 -18 12 -18 19 0 6 48 54 106
106 58 52 165 152 237 222 206 198 317 301 385 358 34 29 62 57 62 61 0 5 13
15 30 24 26 13 98 15 582 11 304 -2 811 -9 1126 -16 448 -9 576 -9 587 0 13
11 15 109 15 695 0 534 -3 685 -12 692 -8 6 -170 15 -381 20 -238 7 -372 14
-379 21 -8 8 2 24 35 56 26 24 53 49 62 53 8 5 73 65 144 134 70 68 195 185
277 259 81 74 173 160 204 191 30 31 93 92 140 134 47 43 117 107 155 143 39
35 90 84 115 109 106 105 194 186 238 219 20 16 107 96 192 179 179 173 206
195 268 215 125 41 111 195 -24 263 -17 9 -37 23 -44 32 -8 9 -32 26 -54 37
-38 19 -55 31 -140 101 -18 15 -37 27 -41 27 -4 0 -25 15 -46 33 -20 17 -61
48 -89 67 -29 19 -66 47 -84 61 -17 15 -49 36 -71 48 -22 12 -60 37 -85 56
-25 19 -61 46 -80 59 -19 13 -41 30 -48 39 -7 8 -27 21 -45 28 -18 7 -64 40
-104 73 -39 34 -100 79 -135 101 -62 38 -77 50 -166 121 -24 18 -50 34 -57 34
-7 0 -31 15 -53 33 -53 43 -115 89 -182 137 -30 21 -71 51 -90 65 -99 75 -143
105 -152 105 -6 0 -26 12 -44 28 -19 15 -49 39 -67 53 -17 15 -50 36 -72 48
-22 12 -59 36 -82 54 -23 17 -59 45 -80 61 -21 17 -42 35 -48 41 -5 7 -26 20
-45 30 -19 10 -49 30 -67 44 -81 65 -176 132 -228 158 -16 9 -40 25 -51 37
-12 12 -47 39 -78 61 -31 22 -86 64 -123 92 -38 29 -84 61 -104 72 -19 11 -41
26 -48 34 -6 8 -26 21 -44 28 -18 6 -43 22 -57 35 -43 39 -134 104 -145 104
-6 0 -33 20 -60 45 -52 48 -189 145 -205 145 -5 0 -29 17 -53 38 -58 49 -168
128 -222 158 -16 9 -52 36 -80 59 -27 24 -71 56 -97 71 -25 16 -80 55 -121 87
-41 31 -79 57 -84 57 -6 0 -18 9 -29 21 -10 12 -32 28 -47 36 -16 8 -55 35
-88 61 -33 26 -75 56 -93 67 -18 11 -47 31 -64 45 -53 43 -106 81 -141 103
-64 41 -109 72 -165 115 -31 24 -73 53 -94 65 -36 21 -107 72 -147 105 -33 28
-112 86 -142 105 -15 9 -55 37 -88 62 -33 25 -74 52 -92 60 -17 8 -35 19 -38
25 -4 6 -25 23 -48 37 -23 14 -67 47 -97 73 -30 26 -68 55 -85 64 -16 9 -59
39 -95 66 -36 27 -76 55 -89 60 -13 6 -39 24 -58 40 -19 17 -38 30 -42 30 -8
0 -33 18 -126 93 -16 13 -44 31 -61 40 -17 9 -63 42 -102 74 -39 32 -99 76
-134 98 -62 38 -78 50 -166 121 -24 18 -48 34 -54 34 -6 0 -44 26 -85 58 -84
64 -121 91 -176 127 -21 14 -65 47 -98 73 -56 44 -106 77 -189 127 -18 11 -42
29 -54 40 -11 11 -35 29 -52 40 -46 29 -124 84 -160 114 -61 51 -89 72 -120
89 -37 20 -120 77 -184 127 -25 19 -63 44 -85 56 -37 20 -50 30 -120 95 -14
13 -38 30 -53 38 -38 19 -133 84 -157 106 -30 28 -85 67 -130 91 -22 12 -54
33 -72 48 -38 31 -89 69 -163 121 -51 36 -85 61 -167 125 -17 14 -44 31 -60
38 -30 12 -64 37 -131 93 -20 17 -48 37 -61 44 -13 6 -50 33 -83 58 -106 82
-132 101 -173 123 -22 12 -54 33 -72 48 -69 56 -216 161 -227 161 -5 0 -26 15
-47 33 -73 61 -104 84 -136 101 -18 9 -43 26 -57 39 -43 38 -90 73 -121 91
-48 27 -144 95 -208 147 -18 15 -51 36 -74 48 -24 12 -43 26 -43 31 0 5 -13
16 -29 25 -16 8 -36 21 -45 30 -27 27 -104 83 -138 101 -18 9 -47 29 -65 43
-56 46 -118 90 -138 97 -11 4 -29 15 -40 25 -11 10 -34 28 -52 41 -18 13 -58
44 -90 69 -32 25 -74 54 -93 64 -19 10 -39 24 -43 31 -4 8 -25 23 -45 33 -20
10 -46 28 -56 40 -11 12 -25 21 -32 21 -6 0 -31 16 -54 35 -23 19 -45 35 -50
35 -4 0 -18 10 -31 23 -13 12 -43 35 -67 50 -43 28 -48 47 -12 47 10 0 21 4
24 9 3 4 22 11 43 14 21 4 56 11 78 16 22 5 65 14 95 21 30 7 73 16 95 21 219
50 509 101 800 143 465 67 784 97 1260 120 152 7 1197 -3 1315 -13z m848 12
c-15 -2 -42 -2 -60 0 -18 2 -6 4 27 4 33 0 48 -2 33 -4z m-3355 -20 c-13 -2
-35 -2 -50 0 -16 2 -5 4 22 4 28 0 40 -2 28 -4z m3500 0 c-13 -2 -35 -2 -50 0
-16 2 -5 4 22 4 28 0 40 -2 28 -4z m2514 1 c-3 -3 -12 -4 -19 -1 -8 3 -5 6 6
6 11 1 17 -2 13 -5z m-8630 -20 c-3 -3 -12 -4 -19 -1 -8 3 -5 6 6 6 11 1 17
-2 13 -5z m2476 -1 c-13 -2 -35 -2 -50 0 -16 2 -5 4 22 4 28 0 40 -2 28 -4z
m3765 0 c-16 -2 -40 -2 -55 0 -16 2 -3 4 27 4 30 0 43 -2 28 -4z m2449 1 c-3
-3 -12 -4 -19 -1 -8 3 -5 6 6 6 11 1 17 -2 13 -5z m-6349 -21 c-10 -2 -28 -2
-40 0 -13 2 -5 4 17 4 22 1 32 -1 23 -4z m4025 0 c-13 -2 -33 -2 -45 0 -13 2
-3 4 22 4 25 0 35 -2 23 -4z m-6480 -20 c-7 -2 -19 -2 -25 0 -7 3 -2 5 12 5
14 0 19 -2 13 -5z m2340 0 c-13 -2 -33 -2 -45 0 -13 2 -3 4 22 4 25 0 35 -2
23 -4z m4255 0 c-10 -2 -28 -2 -40 0 -13 2 -5 4 17 4 22 1 32 -1 23 -4z
m-4370 -20 c-10 -2 -28 -2 -40 0 -13 2 -5 4 17 4 22 1 32 -1 23 -4z m4485 0
c-13 -2 -33 -2 -45 0 -13 2 -3 4 22 4 25 0 35 -2 23 -4z m-4605 -20 c-10 -2
-26 -2 -35 0 -10 3 -2 5 17 5 19 0 27 -2 18 -5z m4710 0 c-10 -2 -28 -2 -40 0
-13 2 -5 4 17 4 22 1 32 -1 23 -4z m-6981 -19 c-3 -3 -12 -4 -19 -1 -8 3 -5 6
6 6 11 1 17 -2 13 -5z m2176 -1 c-7 -2 -21 -2 -30 0 -10 3 -4 5 12 5 17 0 24
-2 18 -5z m4905 0 c-10 -2 -26 -2 -35 0 -10 3 -2 5 17 5 19 0 27 -2 18 -5z
m-5000 -20 c-10 -2 -26 -2 -35 0 -10 3 -2 5 17 5 19 0 27 -2 18 -5z m5100 0
c-10 -2 -28 -2 -40 0 -13 2 -5 4 17 4 22 1 32 -1 23 -4z m-5195 -20 c-7 -2
-21 -2 -30 0 -10 3 -4 5 12 5 17 0 24 -2 18 -5z m5280 0 c-7 -2 -21 -2 -30 0
-10 3 -4 5 12 5 17 0 24 -2 18 -5z m-5375 -20 c-10 -2 -26 -2 -35 0 -10 3 -2
5 17 5 19 0 27 -2 18 -5z m5475 0 c-7 -2 -21 -2 -30 0 -10 3 -4 5 12 5 17 0
24 -2 18 -5z m-5560 -20 c-7 -2 -21 -2 -30 0 -10 3 -4 5 12 5 17 0 24 -2 18
-5z m5640 0 c-7 -2 -21 -2 -30 0 -10 3 -4 5 12 5 17 0 24 -2 18 -5z m-5720
-20 c-7 -2 -21 -2 -30 0 -10 3 -4 5 12 5 17 0 24 -2 18 -5z m5800 0 c-7 -2
-21 -2 -30 0 -10 3 -4 5 12 5 17 0 24 -2 18 -5z m90 -20 c-7 -2 -21 -2 -30 0
-10 3 -4 5 12 5 17 0 24 -2 18 -5z m70 -20 c-7 -2 -19 -2 -25 0 -7 3 -2 5 12
5 14 0 19 -2 13 -5z m80 -20 c-7 -2 -21 -2 -30 0 -10 3 -4 5 12 5 17 0 24 -2
18 -5z m80 -20 c-7 -2 -21 -2 -30 0 -10 3 -4 5 12 5 17 0 24 -2 18 -5z m70
-20 c-7 -2 -19 -2 -25 0 -7 3 -2 5 12 5 14 0 19 -2 13 -5z m74 -19 c-3 -3 -12
-4 -19 -1 -8 3 -5 6 6 6 11 1 17 -2 13 -5z m66 -21 c-7 -2 -19 -2 -25 0 -7 3
-2 5 12 5 14 0 19 -2 13 -5z m74 -19 c-3 -3 -12 -4 -19 -1 -8 3 -5 6 6 6 11 1
17 -2 13 -5z m-7080 -20 c-3 -3 -12 -4 -19 -1 -8 3 -5 6 6 6 11 1 17 -2 13 -5z
m7146 -1 c-7 -2 -19 -2 -25 0 -7 3 -2 5 12 5 14 0 19 -2 13 -5z m-7206 -19
c-3 -3 -12 -4 -19 -1 -8 3 -5 6 6 6 11 1 17 -2 13 -5z m7270 0 c-3 -3 -12 -4
-19 -1 -8 3 -5 6 6 6 11 1 17 -2 13 -5z m-7334 -21 c-7 -2 -19 -2 -25 0 -7 3
-2 5 12 5 14 0 19 -2 13 -5z m7404 1 c-3 -3 -12 -4 -19 -1 -8 3 -5 6 6 6 11 1
17 -2 13 -5z m60 -20 c-3 -3 -12 -4 -19 -1 -8 3 -5 6 6 6 11 1 17 -2 13 -5z
m60 -20 c-3 -3 -12 -4 -19 -1 -8 3 -5 6 6 6 11 1 17 -2 13 -5z m-7347 -23 c0
-11 -11 -55 -25 -98 -20 -65 -26 -110 -34 -268 -7 -159 -12 -199 -31 -245 -18
-46 -23 -86 -30 -245 -8 -161 -13 -202 -34 -267 -21 -64 -27 -108 -35 -265 -7
-151 -13 -200 -30 -248 -17 -45 -24 -99 -31 -220 -13 -223 -17 -257 -41 -317
-16 -42 -22 -88 -29 -242 -7 -157 -12 -202 -30 -251 -17 -47 -24 -97 -31 -235
-9 -158 -18 -218 -50 -330 -5 -19 -14 -118 -19 -220 -8 -153 -13 -198 -34
-261 -21 -64 -27 -109 -35 -265 -7 -153 -13 -200 -31 -249 -18 -49 -24 -94
-31 -247 -6 -138 -13 -201 -27 -245 -31 -93 -33 -108 -42 -298 -7 -153 -11
-188 -31 -235 -20 -49 -22 -72 -23 -212 l-1 -157 45 -46 c25 -26 67 -62 93
-82 42 -31 60 -37 145 -48 61 -8 110 -21 132 -34 23 -13 68 -24 129 -31 53 -6
113 -20 140 -32 25 -11 89 -27 142 -34 57 -7 114 -21 139 -34 25 -13 74 -25
124 -30 48 -5 108 -19 142 -33 36 -15 96 -29 154 -35 61 -7 115 -19 150 -35
37 -17 82 -27 138 -31 60 -5 98 -14 133 -31 33 -17 77 -28 138 -34 55 -6 105
-18 131 -31 27 -14 81 -26 153 -34 79 -10 123 -20 149 -35 26 -16 63 -24 130
-30 99 -9 187 -41 224 -82 19 -21 19 -21 -11 -46 -17 -13 -50 -34 -75 -46
-107 -50 -185 -118 -265 -226 -16 -23 -43 -59 -60 -81 -16 -22 -43 -58 -60
-80 -16 -23 -49 -63 -71 -90 -23 -26 -61 -88 -85 -137 -23 -48 -52 -101 -65
-118 -12 -16 -26 -43 -29 -60 -4 -16 -13 -39 -20 -50 -11 -19 -28 -71 -57
-179 -10 -38 -21 -54 -48 -71 -55 -36 -170 -173 -170 -203 0 -6 -15 -28 -32
-51 -18 -22 -46 -59 -63 -81 -16 -22 -45 -59 -62 -81 -38 -48 -41 -76 -12
-113 l21 -27 -73 -147 c-40 -81 -83 -160 -94 -177 -12 -16 -39 -65 -59 -107
-40 -83 -42 -101 -20 -277 6 -49 3 -60 -37 -140 -23 -47 -54 -101 -68 -120
-25 -33 -26 -40 -25 -170 0 -75 5 -154 12 -176 6 -22 16 -59 22 -82 5 -24 15
-62 21 -85 18 -72 31 -161 29 -205 -4 -135 0 -695 7 -852 l8 -183 51 -47 c58
-53 151 -89 184 -71 25 13 34 49 25 98 -8 45 -22 224 -34 432 -5 85 -11 169
-13 185 -3 27 0 30 28 33 21 2 45 -7 80 -31 52 -35 115 -67 133 -67 6 0 40
-16 76 -34 70 -38 114 -53 185 -66 98 -18 115 -25 118 -47 6 -38 -53 -179
-103 -248 -36 -49 -79 -197 -70 -242 14 -79 4 -173 -28 -263 -9 -25 -17 -56
-17 -70 0 -14 -8 -45 -16 -70 -9 -25 -21 -62 -25 -82 -5 -21 -14 -57 -20 -80
-5 -24 -14 -64 -20 -90 -5 -27 -14 -72 -20 -100 -5 -29 -14 -82 -19 -118 -5
-36 -14 -94 -20 -130 -6 -36 -14 -92 -16 -125 -7 -71 -25 -96 -99 -132 -27
-13 -81 -42 -120 -63 -38 -21 -86 -46 -105 -54 -19 -9 -53 -25 -75 -37 -22
-12 -83 -44 -135 -71 -52 -27 -102 -56 -111 -64 -9 -8 -38 -21 -65 -30 -27 -9
-54 -21 -60 -26 -7 -5 -65 -36 -130 -69 -66 -34 -128 -69 -139 -79 -11 -10
-38 -23 -61 -29 -22 -6 -49 -20 -59 -31 -10 -11 -37 -25 -59 -32 -23 -6 -52
-22 -66 -35 -14 -12 -46 -29 -70 -36 -25 -8 -63 -26 -84 -40 -21 -15 -45 -27
-52 -27 -7 0 -25 -10 -41 -23 -15 -13 -44 -30 -63 -37 -19 -8 -55 -27 -79 -42
-25 -15 -52 -28 -60 -28 -9 -1 -54 -23 -101 -50 -47 -27 -105 -59 -130 -70
-25 -12 -54 -29 -65 -39 -11 -10 -38 -24 -60 -31 -22 -7 -61 -25 -86 -41 -25
-16 -51 -29 -57 -29 -5 0 -54 38 -107 85 -209 183 -368 288 -750 497 -358 196
-438 233 -770 356 -88 32 -182 70 -210 84 -73 37 -160 57 -335 78 -85 10 -204
26 -265 36 -96 16 -175 18 -630 19 -493 0 -523 -1 -563 -19 -36 -17 -43 -23
-40 -45 3 -23 7 -26 38 -24 19 1 40 3 45 3 21 1 113 -18 187 -38 93 -25 135
-44 208 -92 30 -20 112 -65 183 -100 90 -45 160 -90 239 -152 61 -49 156 -120
212 -160 162 -115 197 -141 286 -218 286 -246 538 -496 652 -650 47 -63 110
-143 140 -177 42 -48 59 -78 77 -135 12 -40 33 -93 47 -118 59 -109 95 -193
127 -300 40 -130 94 -288 127 -370 28 -71 127 -355 150 -434 10 -34 31 -101
45 -151 27 -87 27 -94 16 -195 -6 -58 -13 -166 -17 -240 -3 -74 -12 -153 -19
-175 -26 -80 -37 -161 -45 -339 -6 -149 -11 -192 -30 -241 -17 -48 -24 -101
-35 -270 -10 -170 -17 -220 -34 -264 -18 -45 -23 -86 -30 -245 -7 -154 -13
-203 -30 -251 -24 -65 -40 -208 -41 -347 0 -66 -6 -106 -25 -165 -22 -66 -27
-107 -35 -268 -7 -154 -13 -202 -30 -250 -12 -33 -26 -105 -31 -160 -8 -90
-35 -187 -61 -222 -5 -7 -20 -40 -33 -75 -13 -35 -39 -101 -59 -148 -20 -47
-36 -94 -36 -105 0 -12 -18 -72 -39 -135 -55 -163 -89 -277 -100 -335 -5 -28
-21 -86 -35 -130 -68 -214 -86 -286 -86 -354 0 -21 -9 -64 -19 -97 -11 -32
-25 -88 -31 -124 -7 -36 -18 -92 -25 -125 -20 -87 -29 -320 -17 -386 6 -30 16
-87 22 -126 6 -40 15 -101 20 -135 5 -35 14 -101 20 -148 6 -47 18 -110 26
-140 9 -30 26 -103 39 -161 22 -101 55 -212 74 -254 13 -27 40 -109 57 -173 8
-30 27 -72 43 -95 15 -23 43 -69 60 -102 18 -33 52 -91 76 -130 24 -38 40 -71
36 -73 -5 -2 -32 11 -60 28 -29 16 -53 30 -55 30 -2 0 -64 37 -137 81 -74 45
-147 89 -164 99 -117 68 -567 366 -660 437 -43 33 -51 45 -57 83 -4 25 -11 74
-16 110 -6 36 -17 99 -25 140 -8 41 -20 113 -26 160 -11 81 -23 162 -36 242
-10 64 -64 91 -133 67 -33 -11 -43 -32 -62 -124 -14 -71 -88 -305 -102 -322
-11 -14 -102 58 -433 340 -310 266 -438 385 -733 682 -574 579 -1019 1119
-1470 1785 -614 906 -1135 1959 -1467 2965 -87 261 -174 549 -215 705 -12 47
-26 96 -30 110 -5 14 -15 54 -24 90 -8 36 -26 112 -40 170 -36 153 -75 327
-95 430 -40 201 -52 269 -71 385 -11 72 -25 155 -30 185 -20 119 -63 458 -79
630 -25 266 -31 337 -43 505 -17 239 -17 1231 0 1455 29 382 42 530 62 690 44
356 66 506 100 695 5 28 14 77 19 110 20 110 54 281 81 403 6 23 14 61 19 85
11 49 43 185 64 272 18 73 77 293 107 400 5 17 13 46 19 65 110 400 391 1170
566 1555 39 84 81 176 127 275 52 111 232 469 271 540 102 186 190 342 260
460 82 139 94 158 187 307 84 135 365 552 444 658 473 635 767 977 1275 1485
512 511 892 837 1496 1280 314 231 905 607 1200 765 50 26 95 51 100 55 83 58
853 434 1049 512 27 10 68 27 90 37 122 55 313 131 451 181 28 10 88 32 135
50 109 40 375 128 510 170 58 17 114 36 125 40 35 15 55 11 55 -9z m-367 2
c-7 -2 -19 -2 -25 0 -7 3 -2 5 12 5 14 0 19 -2 13 -5z m-66 -19 c-3 -3 -12 -4
-19 -1 -8 3 -5 6 6 6 11 1 17 -2 13 -5z m-60 -20 c-3 -3 -12 -4 -19 -1 -8 3
-5 6 6 6 11 1 17 -2 13 -5z m8020 0 c-3 -3 -12 -4 -19 -1 -8 3 -5 6 6 6 11 1
17 -2 13 -5z m60 -20 c-3 -3 -12 -4 -19 -1 -8 3 -5 6 6 6 11 1 17 -2 13 -5z
m-8190 -20 c-3 -3 -12 -4 -19 -1 -8 3 -5 6 6 6 11 1 17 -2 13 -5z m8300 -20
c-3 -3 -12 -4 -19 -1 -8 3 -5 6 6 6 11 1 17 -2 13 -5z m-8410 -20 c-3 -3 -12
-4 -19 -1 -8 3 -5 6 6 6 11 1 17 -2 13 -5z m-1190 -500 c-3 -3 -12 -4 -19 -1
-8 3 -5 6 6 6 11 1 17 -2 13 -5z m-1557 -174 c0 -5 -5 -10 -11 -10 -5 0 -7 5
-4 10 3 6 8 10 11 10 2 0 4 -4 4 -10z m12877 -66 c-3 -3 -12 -4 -19 -1 -8 3
-5 6 6 6 11 1 17 -2 13 -5z m-13497 -354 c0 -5 -5 -10 -11 -10 -5 0 -7 5 -4
10 3 6 8 10 11 10 2 0 4 -4 4 -10z m-300 -220 c0 -5 -5 -10 -11 -10 -5 0 -7 5
-4 10 3 6 8 10 11 10 2 0 4 -4 4 -10z m-280 -220 c0 -5 -5 -10 -11 -10 -5 0
-7 5 -4 10 3 6 8 10 11 10 2 0 4 -4 4 -10z m-120 -100 c0 -5 -5 -10 -11 -10
-5 0 -7 5 -4 10 3 6 8 10 11 10 2 0 4 -4 4 -10z m-453 -395 c-23 -22 -33 -18
-12 5 10 11 20 18 23 16 2 -3 -3 -12 -11 -21z m-301 -279 c-19 -20 -39 -36
-43 -36 -4 0 10 18 32 40 21 22 41 38 43 35 2 -2 -12 -20 -32 -39z m-98 -100
c-7 -8 -15 -12 -17 -11 -5 6 10 25 20 25 5 0 4 -6 -3 -14z m-28 -26 c0 -5 -5
-10 -11 -10 -5 0 -7 5 -4 10 3 6 8 10 11 10 2 0 4 -4 4 -10z m-117 -115 c-3
-9 -8 -14 -10 -11 -3 3 -2 9 2 15 9 16 15 13 8 -4z m-23 -25 c0 -5 -5 -10 -11
-10 -5 0 -7 5 -4 10 3 6 8 10 11 10 2 0 4 -4 4 -10z m17780 -10 c0 -5 -2 -10
-4 -10 -3 0 -8 5 -11 10 -3 6 -1 10 4 10 6 0 11 -4 11 -10z m-17900 -114 c0
-2 -7 -7 -16 -10 -8 -3 -12 -2 -9 4 6 10 25 14 25 6z m20677 -3698 c-3 -8 -6
-5 -6 6 -1 11 2 17 5 13 3 -3 4 -12 1 -19z m-23360 -480 c-3 -8 -6 -5 -6 6 -1
11 2 17 5 13 3 -3 4 -12 1 -19z m24260 -100 c-3 -7 -5 -2 -5 12 0 14 2 19 5
13 2 -7 2 -19 0 -25z m-24360 -160 c-3 -8 -6 -5 -6 6 -1 11 2 17 5 13 3 -3 4
-12 1 -19z m23780 0 c-3 -8 -6 -5 -6 6 -1 11 2 17 5 13 3 -3 4 -12 1 -19z
m660 -40 c-3 -8 -6 -5 -6 6 -1 11 2 17 5 13 3 -3 4 -12 1 -19z m-24480 -70
c-3 -8 -6 -5 -6 6 -1 11 2 17 5 13 3 -3 4 -12 1 -19z m24520 -50 c-3 -7 -5 -2
-5 12 0 14 2 19 5 13 2 -7 2 -19 0 -25z m-23900 -10 c-3 -8 -6 -5 -6 6 -1 11
2 17 5 13 3 -3 4 -12 1 -19z m15114 -115 c34 -17 72 -26 140 -32 68 -6 104
-14 131 -30 25 -15 71 -27 142 -36 59 -8 121 -22 143 -34 25 -12 79 -24 143
-31 58 -6 108 -14 112 -16 27 -17 -23 -24 -175 -24 -140 0 -177 -3 -195 -16
-22 -15 -22 -16 -22 -315 0 -231 3 -301 13 -304 6 -3 189 -9 405 -14 216 -4
396 -11 399 -15 13 -12 -41 -56 -88 -71 -26 -9 -58 -24 -71 -34 -13 -10 -44
-26 -70 -36 -26 -10 -62 -28 -80 -41 -17 -13 -37 -24 -44 -24 -6 0 -23 -10
-38 -21 -15 -12 -51 -30 -79 -41 -29 -11 -61 -28 -72 -38 -11 -9 -38 -23 -60
-30 -22 -7 -49 -21 -60 -31 -11 -9 -46 -27 -77 -39 -32 -12 -58 -25 -58 -30 0
-5 -21 -16 -47 -26 -27 -10 -60 -28 -75 -40 -15 -12 -44 -28 -65 -34 -21 -7
-49 -23 -63 -35 -14 -13 -41 -26 -60 -30 -19 -4 -55 -19 -80 -34 -76 -45 -93
-54 -160 -89 -36 -19 -72 -40 -80 -47 -8 -7 -33 -18 -55 -25 -22 -7 -45 -17
-52 -22 -16 -13 -21 12 -28 137 -10 174 -8 318 4 375 7 30 15 78 18 105 6 56
17 75 44 75 11 0 28 9 39 20 20 20 21 29 15 253 -8 350 -3 709 10 746 8 21
139 4 196 -26z m8826 15 c-3 -8 -6 -5 -6 6 -1 11 2 17 5 13 3 -3 4 -12 1 -19z
m-24000 -60 c-3 -8 -6 -5 -6 6 -1 11 2 17 5 13 3 -3 4 -12 1 -19z m-640 -10
c-3 -8 -6 -5 -6 6 -1 11 2 17 5 13 3 -3 4 -12 1 -19z m-20 -60 c-3 -8 -6 -5
-6 6 -1 11 2 17 5 13 3 -3 4 -12 1 -19z m24080 -30 c-3 -8 -6 -5 -6 6 -1 11 2
17 5 13 3 -3 4 -12 1 -19z m-23460 -10 c-3 -8 -6 -5 -6 6 -1 11 2 17 5 13 3
-3 4 -12 1 -19z m24100 0 c-3 -8 -6 -5 -6 6 -1 11 2 17 5 13 3 -3 4 -12 1 -19z
m-24740 -20 c-3 -8 -6 -5 -6 6 -1 11 2 17 5 13 3 -3 4 -12 1 -19z m620 -40
c-3 -8 -6 -5 -6 6 -1 11 2 17 5 13 3 -3 4 -12 1 -19z m24140 0 c-3 -8 -6 -5
-6 6 -1 11 2 17 5 13 3 -3 4 -12 1 -19z m-24780 -20 c-3 -8 -6 -5 -6 6 -1 11
2 17 5 13 3 -3 4 -12 1 -19z m24160 -20 c-3 -8 -6 -5 -6 6 -1 11 2 17 5 13 3
-3 4 -12 1 -19z m-6892 -7 l240 -6 0 -220 0 -220 -579 -3 c-457 -2 -581 0
-588 10 -9 15 -11 419 -2 443 7 17 127 17 929 -4z m7532 -23 c-3 -8 -6 -5 -6
6 -1 11 2 17 5 13 3 -3 4 -12 1 -19z m-620 -30 c-3 -8 -6 -5 -6 6 -1 11 2 17
5 13 3 -3 4 -12 1 -19z m-23580 -20 c-3 -8 -6 -5 -6 6 -1 11 2 17 5 13 3 -3 4
-12 1 -19z m24220 -10 c-3 -8 -6 -5 -6 6 -1 11 2 17 5 13 3 -3 4 -12 1 -19z
m-620 -40 c-3 -7 -5 -2 -5 12 0 14 2 19 5 13 2 -7 2 -19 0 -25z m-23620 -10
c-3 -8 -6 -5 -6 6 -1 11 2 17 5 13 3 -3 4 -12 1 -19z m24260 -20 c-3 -7 -5 -2
-5 12 0 14 2 19 5 13 2 -7 2 -19 0 -25z m-24900 -10 c-3 -8 -6 -5 -6 6 -1 11
2 17 5 13 3 -3 4 -12 1 -19z m17746 2 c115 -11 137 -21 137 -58 0 -39 -9 -48
-69 -71 -30 -11 -57 -25 -60 -30 -3 -5 -33 -21 -65 -35 -46 -21 -61 -24 -68
-14 -9 16 -11 202 -1 211 8 9 6 9 126 -3z m6534 -22 c-3 -8 -6 -5 -6 6 -1 11
2 17 5 13 3 -3 4 -12 1 -19z m-23660 -10 c-3 -8 -6 -5 -6 6 -1 11 2 17 5 13 3
-3 4 -12 1 -19z m24300 -20 c-3 -7 -5 -2 -5 12 0 14 2 19 5 13 2 -7 2 -19 0
-25z m-24940 -10 c-3 -8 -6 -5 -6 6 -1 11 2 17 5 13 3 -3 4 -12 1 -19z m24320
-20 c-3 -8 -6 -5 -6 6 -1 11 2 17 5 13 3 -3 4 -12 1 -19z m-23700 -20 c-3 -7
-5 -2 -5 12 0 14 2 19 5 13 2 -7 2 -19 0 -25z m24340 -20 c-3 -7 -5 -2 -5 12
0 14 2 19 5 13 2 -7 2 -19 0 -25z m-24980 -10 c-3 -8 -6 -5 -6 6 -1 11 2 17 5
13 3 -3 4 -12 1 -19z m24360 -10 c-3 -8 -6 -5 -6 6 -1 11 2 17 5 13 3 -3 4
-12 1 -19z m-23740 -20 c-3 -8 -6 -5 -6 6 -1 11 2 17 5 13 3 -3 4 -12 1 -19z
m24380 -20 c-3 -8 -6 -5 -6 6 -1 11 2 17 5 13 3 -3 4 -12 1 -19z m-25020 -20
c-3 -7 -5 -2 -5 12 0 14 2 19 5 13 2 -7 2 -19 0 -25z m24400 -10 c-3 -7 -5 -2
-5 12 0 14 2 19 5 13 2 -7 2 -19 0 -25z m-23780 -10 c-3 -8 -6 -5 -6 6 -1 11
2 17 5 13 3 -3 4 -12 1 -19z m24420 -30 c-3 -8 -6 -5 -6 6 -1 11 2 17 5 13 3
-3 4 -12 1 -19z m-25060 -20 c-3 -8 -6 -5 -6 6 -1 11 2 17 5 13 3 -3 4 -12 1
-19z m24440 0 c-3 -8 -6 -5 -6 6 -1 11 2 17 5 13 3 -3 4 -12 1 -19z m-23820
-10 c-3 -8 -6 -5 -6 6 -1 11 2 17 5 13 3 -3 4 -12 1 -19z m24460 -40 c-3 -8
-6 -5 -6 6 -1 11 2 17 5 13 3 -3 4 -12 1 -19z m-25100 -20 c-3 -7 -5 -2 -5 12
0 14 2 19 5 13 2 -7 2 -19 0 -25z m24480 10 c-3 -8 -6 -5 -6 6 -1 11 2 17 5
13 3 -3 4 -12 1 -19z m-23860 -30 c-3 -7 -5 -2 -5 12 0 14 2 19 5 13 2 -7 2
-19 0 -25z m17048 -8 l0 -35 -75 0 c-41 0 -303 4 -582 9 -483 8 -508 9 -513
27 -4 10 -3 23 0 29 4 7 202 9 588 8 l582 -3 0 -35z m7452 -22 c-3 -7 -5 -2
-5 12 0 14 2 19 5 13 2 -7 2 -19 0 -25z m-620 -20 c-3 -7 -5 -2 -5 12 0 14 2
19 5 13 2 -7 2 -19 0 -25z m-24520 0 c-3 -8 -6 -5 -6 6 -1 11 2 17 5 13 3 -3
4 -12 1 -19z m620 -10 c-3 -8 -6 -5 -6 6 -1 11 2 17 5 13 3 -3 4 -12 1 -19z
m24540 -50 c-3 -7 -5 -2 -5 12 0 14 2 19 5 13 2 -7 2 -19 0 -25z m-620 -15
c-3 -10 -5 -4 -5 12 0 17 2 24 5 18 2 -7 2 -21 0 -30z m-24560 5 c-3 -8 -6 -5
-6 6 -1 11 2 17 5 13 3 -3 4 -12 1 -19z m620 -20 c-3 -7 -5 -2 -5 12 0 14 2
19 5 13 2 -7 2 -19 0 -25z m24580 -50 c-3 -7 -5 -2 -5 12 0 14 2 19 5 13 2 -7
2 -19 0 -25z m-25220 -10 c-3 -7 -5 -2 -5 12 0 14 2 19 5 13 2 -7 2 -19 0 -25z
m24600 10 c-3 -8 -6 -5 -6 6 -1 11 2 17 5 13 3 -3 4 -12 1 -19z m-23980 -25
c-3 -10 -5 -4 -5 12 0 17 2 24 5 18 2 -7 2 -21 0 -30z m24620 -45 c-3 -7 -5
-2 -5 12 0 14 2 19 5 13 2 -7 2 -19 0 -25z m-25260 -15 c-3 -10 -5 -4 -5 12 0
17 2 24 5 18 2 -7 2 -21 0 -30z m24640 5 c-3 -7 -5 -2 -5 12 0 14 2 19 5 13 2
-7 2 -19 0 -25z m-24020 -10 c-3 -8 -6 -5 -6 6 -1 11 2 17 5 13 3 -3 4 -12 1
-19z m24040 -60 c-3 -7 -5 -2 -5 12 0 14 2 19 5 13 2 -7 2 -19 0 -25z m620 0
c-3 -7 -5 -2 -5 12 0 14 2 19 5 13 2 -7 2 -19 0 -25z m-25300 -20 c-3 -7 -5
-2 -5 12 0 14 2 19 5 13 2 -7 2 -19 0 -25z m620 0 c-3 -7 -5 -2 -5 12 0 14 2
19 5 13 2 -7 2 -19 0 -25z m12611 5 c375 -4 527 -10 535 -18 9 -8 11 -87 7
-291 l-5 -279 -754 -3 c-549 -1 -758 1 -767 9 -18 15 -20 548 -3 581 11 21 15
21 238 15 124 -4 462 -10 749 -14z m11469 -65 c-3 -7 -5 -2 -5 12 0 14 2 19 5
13 2 -7 2 -19 0 -25z m620 0 c-3 -7 -5 -2 -5 12 0 14 2 19 5 13 2 -7 2 -19 0
-25z m-25340 -20 c-3 -7 -5 -2 -5 12 0 14 2 19 5 13 2 -7 2 -19 0 -25z m620
-5 c-3 -10 -5 -4 -5 12 0 17 2 24 5 18 2 -7 2 -21 0 -30z m24740 -60 c-3 -10
-5 -2 -5 17 0 19 2 27 5 18 2 -10 2 -26 0 -35z m-620 5 c-3 -7 -5 -2 -5 12 0
14 2 19 5 13 2 -7 2 -19 0 -25z m-24760 -25 c-3 -10 -5 -4 -5 12 0 17 2 24 5
18 2 -7 2 -21 0 -30z m620 5 c-3 -7 -5 -2 -5 12 0 14 2 19 5 13 2 -7 2 -19 0
-25z m24160 -65 c-3 -10 -5 -4 -5 12 0 17 2 24 5 18 2 -7 2 -21 0 -30z m620
-10 c-3 -10 -5 -2 -5 17 0 19 2 27 5 18 2 -10 2 -26 0 -35z m-24800 -5 c-3 -7
-5 -2 -5 12 0 14 2 19 5 13 2 -7 2 -19 0 -25z m-620 -15 c-3 -10 -5 -4 -5 12
0 17 2 24 5 18 2 -7 2 -21 0 -30z m24820 -60 c-3 -10 -5 -4 -5 12 0 17 2 24 5
18 2 -7 2 -21 0 -30z m620 -10 c-3 -10 -5 -2 -5 17 0 19 2 27 5 18 2 -10 2
-26 0 -35z m-24840 0 c-3 -10 -5 -4 -5 12 0 17 2 24 5 18 2 -7 2 -21 0 -30z
m-620 -20 c-3 -10 -5 -4 -5 12 0 17 2 24 5 18 2 -7 2 -21 0 -30z m24860 -50
c-3 -10 -5 -4 -5 12 0 17 2 24 5 18 2 -7 2 -21 0 -30z m-24260 -20 c-3 -10 -5
-4 -5 12 0 17 2 24 5 18 2 -7 2 -21 0 -30z m24880 0 c-3 -10 -5 -4 -5 12 0 17
2 24 5 18 2 -7 2 -21 0 -30z m-25500 -20 c-3 -10 -5 -4 -5 12 0 17 2 24 5 18
2 -7 2 -21 0 -30z m24900 -40 c-3 -10 -5 -4 -5 12 0 17 2 24 5 18 2 -7 2 -21
0 -30z m-24300 -30 c-3 -10 -5 -4 -5 12 0 17 2 24 5 18 2 -7 2 -21 0 -30z
m24920 -10 c-3 -10 -5 -2 -5 17 0 19 2 27 5 18 2 -10 2 -26 0 -35z m-25540
-20 c-3 -10 -5 -2 -5 17 0 19 2 27 5 18 2 -10 2 -26 0 -35z m24940 -50 c-3
-10 -5 -2 -5 17 0 19 2 27 5 18 2 -10 2 -26 0 -35z m-24340 -20 c-3 -10 -5 -2
-5 17 0 19 2 27 5 18 2 -10 2 -26 0 -35z m24960 -10 c-3 -10 -5 -2 -5 17 0 19
2 27 5 18 2 -10 2 -26 0 -35z m-25580 -20 c-3 -10 -5 -2 -5 17 0 19 2 27 5 18
2 -10 2 -26 0 -35z m13910 -18 c5 -8 7 -32 5 -52 l-5 -36 -206 7 c-113 3 -447
8 -741 12 -294 3 -545 7 -557 10 -26 5 -39 39 -23 59 19 23 1515 22 1527 0z
m11070 -22 c-3 -10 -5 -4 -5 12 0 17 2 24 5 18 2 -7 2 -21 0 -30z m-24380 -30
c-3 -10 -5 -2 -5 17 0 19 2 27 5 18 2 -10 2 -26 0 -35z m25000 -15 c-2 -13 -4
-5 -4 17 -1 22 1 32 4 23 2 -10 2 -28 0 -40z m-25620 -20 c-2 -13 -4 -5 -4 17
-1 22 1 32 4 23 2 -10 2 -28 0 -40z m25020 -35 c-3 -10 -5 -2 -5 17 0 19 2 27
5 18 2 -10 2 -26 0 -35z m-24420 -30 c-3 -10 -5 -2 -5 17 0 19 2 27 5 18 2
-10 2 -26 0 -35z m25040 -20 c-3 -10 -5 -2 -5 17 0 19 2 27 5 18 2 -10 2 -26
0 -35z m-25660 -25 c-2 -13 -4 -5 -4 17 -1 22 1 32 4 23 2 -10 2 -28 0 -40z
m25060 -40 c-2 -13 -4 -3 -4 22 0 25 2 35 4 23 2 -13 2 -33 0 -45z m-24460
-30 c-2 -13 -4 -3 -4 22 0 25 2 35 4 23 2 -13 2 -33 0 -45z m25080 -20 c-2
-13 -4 -3 -4 22 0 25 2 35 4 23 2 -13 2 -33 0 -45z m-25700 -30 c-2 -13 -4 -5
-4 17 -1 22 1 32 4 23 2 -10 2 -28 0 -40z m25100 -40 c-2 -13 -4 -3 -4 22 0
25 2 35 4 23 2 -13 2 -33 0 -45z m-24500 -20 c-2 -13 -4 -5 -4 17 -1 22 1 32
4 23 2 -10 2 -28 0 -40z m25120 -30 c-2 -13 -4 -3 -4 22 0 25 2 35 4 23 2 -13
2 -33 0 -45z m-25740 -30 c-2 -13 -4 -3 -4 22 0 25 2 35 4 23 2 -13 2 -33 0
-45z m25140 -40 c-2 -13 -4 -3 -4 22 0 25 2 35 4 23 2 -13 2 -33 0 -45z
m-24540 -20 c-2 -13 -4 -3 -4 22 0 25 2 35 4 23 2 -13 2 -33 0 -45z m18063 32
c47 -5 352 -12 678 -16 l592 -7 -2 -490 -3 -491 -38 -8 c-22 -4 -604 -7 -1295
-6 l-1257 3 -3 505 c-1 278 0 510 2 516 5 14 1197 9 1326 -6z m7097 -72 c-2
-13 -4 -3 -4 22 0 25 2 35 4 23 2 -13 2 -33 0 -45z m-25780 -30 c-2 -13 -4 -3
-4 22 0 25 2 35 4 23 2 -13 2 -33 0 -45z m25180 -25 c-2 -16 -4 -5 -4 22 0 28
2 40 4 28 2 -13 2 -35 0 -50z m-24580 -35 c-2 -13 -4 -3 -4 22 0 25 2 35 4 23
2 -13 2 -33 0 -45z m25200 -45 c-2 -16 -4 -5 -4 22 0 28 2 40 4 28 2 -13 2
-35 0 -50z m-25820 -40 c-2 -16 -4 -3 -4 27 0 30 2 43 4 28 2 -16 2 -40 0 -55z
m25220 -20 c-2 -16 -4 -5 -4 22 0 28 2 40 4 28 2 -13 2 -35 0 -50z m-24620
-30 c-2 -16 -4 -5 -4 22 0 28 2 40 4 28 2 -13 2 -35 0 -50z m25240 -65 c-2
-18 -4 -6 -4 27 0 33 2 48 4 33 2 -15 2 -42 0 -60z m-25860 -35 c-2 -16 -4 -3
-4 27 0 30 2 43 4 28 2 -16 2 -40 0 -55z m25260 -15 c-2 -18 -4 -6 -4 27 0 33
2 48 4 33 2 -15 2 -42 0 -60z m-24660 -40 c-2 -18 -4 -6 -4 27 0 33 2 48 4 33
2 -15 2 -42 0 -60z m25280 -70 c-2 -18 -4 -6 -4 27 0 33 2 48 4 33 2 -15 2
-42 0 -60z m-25900 -45 c-2 -21 -4 -6 -4 32 0 39 2 55 4 38 2 -18 2 -50 0 -70z
m25300 -15 c-2 -18 -4 -4 -4 32 0 36 2 50 4 33 2 -18 2 -48 0 -65z m-24700
-40 c-2 -18 -4 -4 -4 32 0 36 2 50 4 33 2 -18 2 -48 0 -65z m25320 -95 c-2
-21 -4 -4 -4 37 0 41 2 58 4 38 2 -21 2 -55 0 -75z m-25940 -50 c-2 -21 -4 -4
-4 37 0 41 2 58 4 38 2 -21 2 -55 0 -75z m25340 -5 c-2 -24 -4 -7 -4 37 0 44
2 63 4 43 2 -21 2 -57 0 -80z m-24740 -50 c-2 -24 -4 -7 -4 37 0 44 2 63 4 43
2 -21 2 -57 0 -80z m25360 -121 c-2 -23 -3 -1 -3 48 0 50 1 68 3 42 2 -26 2
-67 0 -90z m-25980 -49 c-2 -29 -3 -8 -3 47 0 55 1 79 3 53 2 -26 2 -71 0
-100z m15408 114 l390 -7 3 -217 2 -218 -22 -5 c-13 -3 -275 -4 -583 -3 l-560
3 -3 224 c-1 142 1 227 8 231 5 3 92 4 192 2 101 -2 359 -7 573 -10z m9972
-114 c-2 -24 -4 -5 -4 42 0 47 2 66 4 43 2 -24 2 -62 0 -85z m-24780 -65 c-2
-27 -3 -5 -3 47 0 52 1 74 3 48 2 -27 2 -69 0 -95z m25400 -155 c-2 -35 -3 -9
-3 57 0 66 1 94 3 63 2 -32 2 -86 0 -120z m-26020 -75 c-2 -37 -3 -9 -3 62 0
72 1 102 3 68 2 -34 2 -93 0 -130z m25420 -5 c-2 -35 -3 -9 -3 57 0 66 1 94 3
63 2 -32 2 -86 0 -120z m-24820 -90 c-1 -40 -3 -10 -3 67 0 77 1 110 3 73 2
-37 2 -100 0 -140z m11594 46 c5 -3 9 -88 9 -190 l0 -184 -500 0 -500 0 0 188
c0 104 3 192 8 197 8 8 968 -2 983 -11z m13846 -331 c-1 -60 -3 -11 -3 107 0
118 2 167 3 108 2 -60 2 -156 0 -215z m-10219 268 c2 -14 -3 -30 -11 -35 -14
-11 -997 -2 -1104 10 -42 4 -53 9 -53 23 0 10 3 21 7 24 3 4 266 6 582 5 l576
-3 3 -24z m-15841 -889 c-1 -152 -2 -25 -2 283 0 308 1 433 2 277 2 -156 2
-408 0 -560z m25460 16 c-1 -150 -2 -30 -2 267 0 297 1 420 2 273 2 -147 2
-390 0 -540z m-24860 60 c-1 -112 -2 -21 -2 202 0 223 1 314 2 203 2 -112 2
-294 0 -405z m11621 433 l3 -34 -488 7 c-396 6 -491 10 -502 21 -12 12 -12 17
-1 30 11 13 68 15 499 13 l486 -3 3 -34z m-1371 -357 c33 -60 30 -76 -21 -99
l-45 -21 6 71 c2 38 7 76 9 83 7 22 28 8 51 -34z m6778 -65 c226 -6 500 -11
610 -12 l200 -2 0 -365 0 -364 -25 -7 c-14 -4 -444 -7 -955 -8 -712 -1 -934 2
-943 11 -17 17 -17 739 -1 755 13 13 426 10 1114 -8z m8432 -346 c-1 -59 -3
-13 -3 102 0 116 2 164 3 108 2 -56 2 -151 0 -210z m-25440 -215 c-1 -40 -3
-8 -3 72 0 80 2 112 3 73 2 -40 2 -106 0 -145z m24820 -75 c-2 -37 -3 -9 -3
62 0 72 1 102 3 68 2 -34 2 -93 0 -130z m-25420 -5 c-2 -35 -3 -9 -3 57 0 66
1 94 3 63 2 -32 2 -86 0 -120z m26020 -75 c-2 -32 -3 -6 -3 57 0 63 1 89 3 58
2 -32 2 -84 0 -115z m-25400 -135 c-2 -29 -3 -6 -3 52 0 58 1 81 3 53 2 -29 2
-77 0 -105z m-600 -55 c-2 -27 -3 -5 -3 47 0 52 1 74 3 48 2 -27 2 -69 0 -95z
m25380 4 c-2 -23 -3 -1 -3 48 0 50 1 68 3 42 2 -26 2 -67 0 -90z m-6999 87
c20 -6 22 -13 22 -64 0 -44 -4 -59 -16 -64 -9 -3 -20 -4 -24 -1 -5 3 -294 10
-642 16 -348 6 -772 14 -943 18 l-310 6 -3 33 c-7 66 -74 62 957 62 515 0 946
-3 959 -6z m7599 -157 c-2 -23 -3 -1 -3 48 0 50 1 68 3 42 2 -26 2 -67 0 -90z
m-25360 -89 c-2 -24 -4 -7 -4 37 0 44 2 63 4 43 2 -21 2 -57 0 -80z m-600 -60
c-2 -24 -4 -7 -4 37 0 44 2 63 4 43 2 -21 2 -57 0 -80z m25340 5 c-2 -21 -4
-4 -4 37 0 41 2 58 4 38 2 -21 2 -55 0 -75z m600 -50 c-2 -21 -4 -4 -4 37 0
41 2 58 4 38 2 -21 2 -55 0 -75z m-25320 -75 c-2 -18 -4 -4 -4 32 0 36 2 50 4
33 2 -18 2 -48 0 -65z m24700 -40 c-2 -18 -4 -6 -4 27 0 33 2 48 4 33 2 -15 2
-42 0 -60z m-25300 -20 c-2 -18 -4 -4 -4 32 0 36 2 50 4 33 2 -18 2 -48 0 -65z
m25900 -40 c-2 -18 -4 -4 -4 32 0 36 2 50 4 33 2 -18 2 -48 0 -65z m-25280
-60 c-2 -18 -4 -6 -4 27 0 33 2 48 4 33 2 -15 2 -42 0 -60z m24660 -45 c-2
-16 -4 -3 -4 27 0 30 2 43 4 28 2 -16 2 -40 0 -55z m-25260 -15 c-2 -18 -4 -6
-4 27 0 33 2 48 4 33 2 -15 2 -42 0 -60z m25860 -40 c-2 -18 -4 -6 -4 27 0 33
2 48 4 33 2 -15 2 -42 0 -60z m-25240 -55 c-2 -16 -4 -3 -4 27 0 30 2 43 4 28
2 -16 2 -40 0 -55z m24620 -30 c-2 -16 -4 -5 -4 22 0 28 2 40 4 28 2 -13 2
-35 0 -50z m-25220 -20 c-2 -16 -4 -5 -4 22 0 28 2 40 4 28 2 -13 2 -35 0 -50z
m25820 -40 c-2 -16 -4 -5 -4 22 0 28 2 40 4 28 2 -13 2 -35 0 -50z m-25200
-40 c-2 -16 -4 -5 -4 22 0 28 2 40 4 28 2 -13 2 -35 0 -50z m24580 -35 c-2
-13 -4 -3 -4 22 0 25 2 35 4 23 2 -13 2 -33 0 -45z m-25180 -35 c-2 -16 -4 -3
-4 27 0 30 2 43 4 28 2 -16 2 -40 0 -55z m25780 -30 c-2 -16 -4 -5 -4 22 0 28
2 40 4 28 2 -13 2 -35 0 -50z m-25160 -30 c-2 -16 -4 -5 -4 22 0 28 2 40 4 28
2 -13 2 -35 0 -50z m24540 -35 c-2 -13 -4 -3 -4 22 0 25 2 35 4 23 2 -13 2
-33 0 -45z m-25140 -20 c-2 -13 -4 -5 -4 17 -1 22 1 32 4 23 2 -10 2 -28 0
-40z m25740 -30 c-2 -13 -4 -3 -4 22 0 25 2 35 4 23 2 -13 2 -33 0 -45z
m-25120 -30 c-2 -13 -4 -5 -4 17 -1 22 1 32 4 23 2 -10 2 -28 0 -40z m24500
-40 c-2 -13 -4 -3 -4 22 0 25 2 35 4 23 2 -13 2 -33 0 -45z m-25100 -30 c-2
-13 -4 -3 -4 22 0 25 2 35 4 23 2 -13 2 -33 0 -45z m25700 -20 c-2 -13 -4 -5
-4 17 -1 22 1 32 4 23 2 -10 2 -28 0 -40z m-25080 -30 c-2 -13 -4 -5 -4 17 -1
22 1 32 4 23 2 -10 2 -28 0 -40z m24460 -25 c-3 -10 -5 -2 -5 17 0 19 2 27 5
18 2 -10 2 -26 0 -35z m-25060 -35 c-2 -13 -4 -5 -4 17 -1 22 1 32 4 23 2 -10
2 -28 0 -40z m25660 -30 c-2 -13 -4 -5 -4 17 -1 22 1 32 4 23 2 -10 2 -28 0
-40z m-25040 -10 c-2 -13 -4 -5 -4 17 -1 22 1 32 4 23 2 -10 2 -28 0 -40z
m24420 -25 c-3 -10 -5 -2 -5 17 0 19 2 27 5 18 2 -10 2 -26 0 -35z m-25020
-40 c-3 -10 -5 -2 -5 17 0 19 2 27 5 18 2 -10 2 -26 0 -35z m25620 -30 c-3
-10 -5 -2 -5 17 0 19 2 27 5 18 2 -10 2 -26 0 -35z m-25000 -10 c-3 -10 -5 -2
-5 17 0 19 2 27 5 18 2 -10 2 -26 0 -35z m24380 -25 c-2 -13 -4 -5 -4 17 -1
22 1 32 4 23 2 -10 2 -28 0 -40z m-24980 -35 c-3 -10 -5 -2 -5 17 0 19 2 27 5
18 2 -10 2 -26 0 -35z m25580 -30 c-3 -10 -5 -2 -5 17 0 19 2 27 5 18 2 -10 2
-26 0 -35z m-24960 0 c-3 -10 -5 -4 -5 12 0 17 2 24 5 18 2 -7 2 -21 0 -30z
m24340 -30 c-3 -10 -5 -4 -5 12 0 17 2 24 5 18 2 -7 2 -21 0 -30z m-24940 -50
c-3 -10 -5 -2 -5 17 0 19 2 27 5 18 2 -10 2 -26 0 -35z m620 -20 c-3 -10 -5
-2 -5 17 0 19 2 27 5 18 2 -10 2 -26 0 -35z m24920 10 c-3 -10 -5 -4 -5 12 0
17 2 24 5 18 2 -7 2 -21 0 -30z m-620 -30 c-3 -10 -5 -4 -5 12 0 17 2 24 5 18
2 -7 2 -21 0 -30z m-24900 -50 c-3 -10 -5 -4 -5 12 0 17 2 24 5 18 2 -7 2 -21
0 -30z m620 -20 c-3 -10 -5 -2 -5 17 0 19 2 27 5 18 2 -10 2 -26 0 -35z
m24880 -10 c-3 -10 -5 -2 -5 17 0 19 2 27 5 18 2 -10 2 -26 0 -35z m-620 -10
c-3 -10 -5 -4 -5 12 0 17 2 24 5 18 2 -7 2 -21 0 -30z m-24860 -50 c-3 -10 -5
-4 -5 12 0 17 2 24 5 18 2 -7 2 -21 0 -30z m620 -10 c-3 -10 -5 -4 -5 12 0 17
2 24 5 18 2 -7 2 -21 0 -30z m24840 -20 c-3 -10 -5 -4 -5 12 0 17 2 24 5 18 2
-7 2 -21 0 -30z m-620 -10 c-3 -10 -5 -4 -5 12 0 17 2 24 5 18 2 -7 2 -21 0
-30z m-24820 -50 c-3 -10 -5 -4 -5 12 0 17 2 24 5 18 2 -7 2 -21 0 -30z m620
-10 c-3 -10 -5 -4 -5 12 0 17 2 24 5 18 2 -7 2 -21 0 -30z m24800 -20 c-3 -10
-5 -2 -5 17 0 19 2 27 5 18 2 -10 2 -26 0 -35z m-4217 17 c0 -5 -4 -10 -9 -10
-6 0 -13 5 -16 10 -3 6 1 10 9 10 9 0 16 -4 16 -10z m3597 -22 c-3 -7 -5 -2
-5 12 0 14 2 19 5 13 2 -7 2 -19 0 -25z m-24780 -55 c-3 -10 -5 -4 -5 12 0 17
2 24 5 18 2 -7 2 -21 0 -30z m620 -5 c-3 -7 -5 -2 -5 12 0 14 2 19 5 13 2 -7
2 -19 0 -25z m24140 -15 c-3 -10 -5 -4 -5 12 0 17 2 24 5 18 2 -7 2 -21 0 -30z
m620 0 c-3 -10 -5 -4 -5 12 0 17 2 24 5 18 2 -7 2 -21 0 -30z m-25360 -65 c-3
-7 -5 -2 -5 12 0 14 2 19 5 13 2 -7 2 -19 0 -25z m620 0 c-3 -7 -5 -2 -5 12 0
14 2 19 5 13 2 -7 2 -19 0 -25z m24100 -15 c-3 -10 -5 -4 -5 12 0 17 2 24 5
18 2 -7 2 -21 0 -30z m620 0 c-3 -10 -5 -4 -5 12 0 17 2 24 5 18 2 -7 2 -21 0
-30z m-25320 -70 c-3 -10 -5 -4 -5 12 0 17 2 24 5 18 2 -7 2 -21 0 -30z m620
5 c-3 -7 -5 -2 -5 12 0 14 2 19 5 13 2 -7 2 -19 0 -25z m24060 -20 c-3 -7 -5
-2 -5 12 0 14 2 19 5 13 2 -7 2 -19 0 -25z m620 0 c-3 -7 -5 -2 -5 12 0 14 2
19 5 13 2 -7 2 -19 0 -25z m-24660 -50 c-3 -7 -5 -2 -5 12 0 14 2 19 5 13 2
-7 2 -19 0 -25z m-620 -10 c-3 -7 -5 -2 -5 12 0 14 2 19 5 13 2 -7 2 -19 0
-25z m25260 -15 c-3 -10 -5 -4 -5 12 0 17 2 24 5 18 2 -7 2 -21 0 -30z m-620
5 c-3 -8 -6 -5 -6 6 -1 11 2 17 5 13 3 -3 4 -12 1 -19z m-24620 -65 c-3 -10
-5 -4 -5 12 0 17 2 24 5 18 2 -7 2 -21 0 -30z m620 5 c-3 -7 -5 -2 -5 12 0 14
2 19 5 13 2 -7 2 -19 0 -25z m23980 -10 c-3 -7 -5 -2 -5 12 0 14 2 19 5 13 2
-7 2 -19 0 -25z m620 -10 c-3 -8 -6 -5 -6 6 -1 11 2 17 5 13 3 -3 4 -12 1 -19z
m-25200 -65 c-3 -10 -5 -4 -5 12 0 17 2 24 5 18 2 -7 2 -21 0 -30z m620 15
c-3 -8 -6 -5 -6 6 -1 11 2 17 5 13 3 -3 4 -12 1 -19z m23940 -20 c-3 -7 -5 -2
-5 12 0 14 2 19 5 13 2 -7 2 -19 0 -25z m620 -10 c-3 -7 -5 -2 -5 12 0 14 2
19 5 13 2 -7 2 -19 0 -25z m-24540 -40 c-3 -7 -5 -2 -5 12 0 14 2 19 5 13 2
-7 2 -19 0 -25z m-620 -10 c-3 -8 -6 -5 -6 6 -1 11 2 17 5 13 3 -3 4 -12 1
-19z m24520 0 c-3 -8 -6 -5 -6 6 -1 11 2 17 5 13 3 -3 4 -12 1 -19z m620 -25
c-3 -10 -5 -4 -5 12 0 17 2 24 5 18 2 -7 2 -21 0 -30z m-24500 -35 c-3 -8 -6
-5 -6 6 -1 11 2 17 5 13 3 -3 4 -12 1 -19z m-620 -10 c-3 -8 -6 -5 -6 6 -1 11
2 17 5 13 3 -3 4 -12 1 -19z m24480 0 c-3 -8 -6 -5 -6 6 -1 11 2 17 5 13 3 -3
4 -12 1 -19z m620 -20 c-3 -8 -6 -5 -6 6 -1 11 2 17 5 13 3 -3 4 -12 1 -19z
m-24460 -30 c-3 -8 -6 -5 -6 6 -1 11 2 17 5 13 3 -3 4 -12 1 -19z m23820 -20
c-3 -7 -5 -2 -5 12 0 14 2 19 5 13 2 -7 2 -19 0 -25z m-24440 -10 c-3 -7 -5
-2 -5 12 0 14 2 19 5 13 2 -7 2 -19 0 -25z m12858 -39 c11 -30 25 -63 31 -74
12 -22 127 -378 142 -440 6 -22 18 -65 28 -95 18 -60 30 -119 44 -220 5 -36
14 -93 20 -127 5 -35 14 -89 20 -120 37 -229 47 -249 180 -397 78 -85 128
-167 142 -228 4 -21 13 -57 19 -80 6 -24 15 -88 20 -143 23 -256 29 -316 39
-405 6 -52 14 -138 19 -190 15 -157 27 -208 58 -247 15 -19 34 -45 42 -57 8
-11 62 -71 120 -132 58 -62 119 -128 134 -147 l28 -36 -5 -163 c-5 -179 -20
-368 -31 -409 -10 -38 18 -90 71 -136 25 -21 77 -67 117 -103 73 -66 148 -121
180 -133 29 -11 52 -89 87 -297 5 -30 12 -72 16 -93 5 -33 3 -42 -22 -68 -25
-26 -30 -41 -37 -112 -11 -111 -10 -168 3 -257 6 -41 14 -109 19 -150 4 -41
14 -91 21 -110 24 -67 42 -233 56 -526 4 -85 2 -113 -8 -122 -38 -31 -230 -80
-403 -102 -49 -6 -112 -16 -138 -21 -26 -5 -74 -9 -105 -10 -57 0 -125 -11
-282 -45 -77 -17 -135 -19 -615 -19 -423 0 -542 3 -590 14 -91 22 -96 30 -34
61 47 23 56 32 71 76 25 68 25 250 1 314 -12 30 -20 92 -24 190 -4 80 -12 174
-19 210 -6 36 -15 99 -19 140 -5 41 -14 95 -21 120 -15 58 -29 174 -38 326 -7
114 -9 123 -37 158 -51 64 -50 63 -37 99 7 20 12 90 12 181 0 155 6 181 50
221 12 11 42 49 66 85 25 36 60 85 79 110 72 95 116 162 116 178 -1 21 -16
103 -30 160 -6 23 -15 60 -21 82 -5 22 -14 58 -20 80 -5 22 -15 59 -21 83 -23
85 -22 161 0 203 12 21 21 44 21 50 0 6 27 65 60 130 33 65 60 124 60 131 0 7
9 30 21 52 18 35 20 53 16 143 -3 57 -10 128 -16 158 -7 30 -16 80 -21 110 -5
30 -14 80 -20 110 -6 30 -15 81 -20 113 -6 31 -15 85 -20 120 -6 34 -15 96
-20 137 -5 41 -12 93 -16 116 -7 46 8 99 53 184 44 83 87 223 79 257 -4 15
-11 48 -16 73 -5 25 -14 65 -20 90 -27 110 -33 152 -33 255 0 61 5 133 11 160
6 28 15 73 21 100 5 28 16 76 25 108 9 32 16 70 16 84 0 21 30 56 141 165 78
77 146 137 153 135 6 -2 20 -28 31 -58z m12202 19 c-3 -7 -5 -2 -5 12 0 14 2
19 5 13 2 -7 2 -19 0 -25z m-24420 -20 c-3 -7 -5 -2 -5 12 0 14 2 19 5 13 2
-7 2 -19 0 -25z m-620 -20 c-3 -8 -6 -5 -6 6 -1 11 2 17 5 13 3 -3 4 -12 1
-19z m24400 0 c-3 -8 -6 -5 -6 6 -1 11 2 17 5 13 3 -3 4 -12 1 -19z m620 -20
c-3 -8 -6 -5 -6 6 -1 11 2 17 5 13 3 -3 4 -12 1 -19z m-24380 -20 c-3 -8 -6
-5 -6 6 -1 11 2 17 5 13 3 -3 4 -12 1 -19z m23740 -20 c-3 -8 -6 -5 -6 6 -1
11 2 17 5 13 3 -3 4 -12 1 -19z m-24360 -10 c-3 -8 -6 -5 -6 6 -1 11 2 17 5
13 3 -3 4 -12 1 -19z m24980 -10 c-3 -8 -6 -5 -6 6 -1 11 2 17 5 13 3 -3 4
-12 1 -19z m-24340 -30 c-3 -8 -6 -5 -6 6 -1 11 2 17 5 13 3 -3 4 -12 1 -19z
m23700 -10 c-3 -8 -6 -5 -6 6 -1 11 2 17 5 13 3 -3 4 -12 1 -19z m-24320 -20
c-3 -8 -6 -5 -6 6 -1 11 2 17 5 13 3 -3 4 -12 1 -19z m24940 -20 c-3 -7 -5 -2
-5 12 0 14 2 19 5 13 2 -7 2 -19 0 -25z m-640 -30 c-3 -8 -6 -5 -6 6 -1 11 2
17 5 13 3 -3 4 -12 1 -19z m-24280 -20 c-3 -7 -5 -2 -5 12 0 14 2 19 5 13 2
-7 2 -19 0 -25z m24900 -10 c-3 -8 -6 -5 -6 6 -1 11 2 17 5 13 3 -3 4 -12 1
-19z m-640 -30 c-3 -8 -6 -5 -6 6 -1 11 2 17 5 13 3 -3 4 -12 1 -19z m-24240
-20 c-3 -8 -6 -5 -6 6 -1 11 2 17 5 13 3 -3 4 -12 1 -19z m24860 -20 c-3 -7
-5 -2 -5 12 0 14 2 19 5 13 2 -7 2 -19 0 -25z m-24220 0 c-3 -8 -6 -5 -6 6 -1
11 2 17 5 13 3 -3 4 -12 1 -19z m-620 -40 c-3 -8 -6 -5 -6 6 -1 11 2 17 5 13
3 -3 4 -12 1 -19z m640 -20 c-3 -8 -6 -5 -6 6 -1 11 2 17 5 13 3 -3 4 -12 1
-19z m24180 0 c-3 -8 -6 -5 -6 6 -1 11 2 17 5 13 3 -3 4 -12 1 -19z m-640 -10
c-3 -8 -6 -5 -6 6 -1 11 2 17 5 13 3 -3 4 -12 1 -19z m-24160 -40 c-3 -7 -5
-2 -5 12 0 14 2 19 5 13 2 -7 2 -19 0 -25z m24780 -10 c-3 -8 -6 -5 -6 6 -1
11 2 17 5 13 3 -3 4 -12 1 -19z m-640 -10 c-3 -8 -6 -5 -6 6 -1 11 2 17 5 13
3 -3 4 -12 1 -19z m-24120 -30 c-3 -8 -6 -5 -6 6 -1 11 2 17 5 13 3 -3 4 -12
1 -19z m640 -20 c-3 -7 -5 -2 -5 12 0 14 2 19 5 13 2 -7 2 -19 0 -25z m-620
-40 c-3 -8 -6 -5 -6 6 -1 11 2 17 5 13 3 -3 4 -12 1 -19z m640 -10 c-3 -8 -6
-5 -6 6 -1 11 2 17 5 13 3 -3 4 -12 1 -19z m23420 -20 c-3 -8 -6 -5 -6 6 -1
11 2 17 5 13 3 -3 4 -12 1 -19z m-24040 -30 c-3 -8 -6 -5 -6 6 -1 11 2 17 5
13 3 -3 4 -12 1 -19z m24660 -20 c-3 -7 -5 -2 -5 12 0 14 2 19 5 13 2 -7 2
-19 0 -25z m-24640 -40 c-3 -8 -6 -5 -6 6 -1 11 2 17 5 13 3 -3 4 -12 1 -19z
m660 -60 c-3 -8 -6 -5 -6 6 -1 11 2 17 5 13 3 -3 4 -12 1 -19z m23940 -10 c-3
-8 -6 -5 -6 6 -1 11 2 17 5 13 3 -3 4 -12 1 -19z m-24560 -40 c-3 -8 -6 -5 -6
6 -1 11 2 17 5 13 3 -3 4 -12 1 -19z m24520 -70 c-3 -8 -6 -5 -6 6 -1 11 2 17
5 13 3 -3 4 -12 1 -19z m-660 -50 c-3 -8 -6 -5 -6 6 -1 11 2 17 5 13 3 -3 4
-12 1 -19z m-23160 -40 c-3 -8 -6 -5 -6 6 -1 11 2 17 5 13 3 -3 4 -12 1 -19z
m23780 -20 c-3 -8 -6 -5 -6 6 -1 11 2 17 5 13 3 -3 4 -12 1 -19z m-24360 -150
c-3 -7 -5 -2 -5 12 0 14 2 19 5 13 2 -7 2 -19 0 -25z m24240 -160 c-3 -8 -6
-5 -6 6 -1 11 2 17 5 13 3 -3 4 -12 1 -19z m-13941 -791 c-4 -29 -11 -88 -17
-132 -21 -160 -22 -285 -3 -344 14 -46 88 -164 200 -320 26 -37 32 -98 15
-155 -5 -17 -15 -51 -21 -76 -6 -25 -34 -116 -62 -202 -39 -119 -50 -166 -46
-196 5 -37 69 -144 104 -173 9 -7 36 -43 60 -81 40 -61 74 -94 129 -124 17
-10 20 -23 23 -97 l3 -86 -34 -15 c-42 -17 -76 -64 -84 -113 -3 -21 -11 -45
-18 -53 -7 -8 -23 -33 -36 -55 -24 -42 -33 -117 -45 -413 l-5 -122 -39 -25
c-21 -13 -55 -45 -76 -70 -21 -25 -41 -45 -44 -45 -3 0 -22 21 -40 48 -19 26
-52 72 -74 102 -71 99 -288 463 -337 565 -27 55 -82 201 -123 325 -41 124 -89
263 -107 310 -30 80 -70 228 -120 450 -12 52 -39 141 -60 198 -52 136 -51 147
14 210 28 28 72 73 97 99 24 27 52 53 61 58 24 14 187 164 340 313 69 67 141
134 160 147 19 14 39 31 44 39 6 7 37 36 69 65 69 60 82 54 72 -32z m12691
-209 c-3 -8 -6 -5 -6 6 -1 11 2 17 5 13 3 -3 4 -12 1 -19z m-2567 -3398 c0 -5
-5 -10 -11 -10 -5 0 -7 5 -4 10 3 6 8 10 11 10 2 0 4 -4 4 -10z m-15903 -822
c-1 -51 -3 -12 -3 87 0 99 2 141 3 93 2 -48 2 -129 0 -180z m540 -130 c-3 -7
-5 -2 -5 12 0 14 2 19 5 13 2 -7 2 -19 0 -25z m-520 -75 c-2 -16 -4 -3 -4 27
0 30 2 43 4 28 2 -16 2 -40 0 -55z m540 15 c-3 -8 -6 -5 -6 6 -1 11 2 17 5 13
3 -3 4 -12 1 -19z m14400 -30 c-3 -8 -6 -5 -6 6 -1 11 2 17 5 13 3 -3 4 -12 1
-19z m-14380 -40 c-3 -8 -6 -5 -6 6 -1 11 2 17 5 13 3 -3 4 -12 1 -19z m14400
-45 c-3 -10 -5 -2 -5 17 0 19 2 27 5 18 2 -10 2 -26 0 -35z m-14940 -35 c-2
-13 -4 -3 -4 22 0 25 2 35 4 23 2 -13 2 -33 0 -45z m560 20 c-3 -8 -6 -5 -6 6
-1 11 2 17 5 13 3 -3 4 -12 1 -19z m14380 -140 c-2 -13 -4 -3 -4 22 0 25 2 35
4 23 2 -13 2 -33 0 -45z m-14920 -25 c-2 -16 -4 -3 -4 27 0 30 2 43 4 28 2
-16 2 -40 0 -55z m14900 -75 c-3 -7 -5 -2 -5 12 0 14 2 19 5 13 2 -7 2 -19 0
-25z m-20 -70 c-3 -7 -5 -2 -5 12 0 14 2 19 5 13 2 -7 2 -19 0 -25z m-51 -96
c-17 -16 -18 -16 -5 5 7 12 15 20 18 17 3 -2 -3 -12 -13 -22z m-1179 -18 c-3
-3 -12 -4 -19 -1 -8 3 -5 6 6 6 11 1 17 -2 13 -5z m-30 -20 c-3 -3 -12 -4 -19
-1 -8 3 -5 6 6 6 11 1 17 -2 13 -5z m-712 -514 c3 -6 -4 -10 -17 -10 -18 0
-20 2 -8 10 19 12 18 12 25 0z m58 -27 c-7 -2 -21 -2 -30 0 -10 3 -4 5 12 5
17 0 24 -2 18 -5z m90 -20 c-7 -2 -21 -2 -30 0 -10 3 -4 5 12 5 17 0 24 -2 18
-5z m80 -20 c-7 -2 -19 -2 -25 0 -7 3 -2 5 12 5 14 0 19 -2 13 -5z m80 -20
c-7 -2 -21 -2 -30 0 -10 3 -4 5 12 5 17 0 24 -2 18 -5z m564 1 c-3 -3 -12 -4
-19 -1 -8 3 -5 6 6 6 11 1 17 -2 13 -5z m-379 -21 c-27 -2 -69 -2 -95 0 -27 2
-5 3 47 3 52 0 74 -1 48 -3z m295 0 c-23 -2 -64 -2 -90 0 -26 2 -7 3 42 3 50
0 71 -1 48 -3z m-12050 -60 c-7 -2 -19 -2 -25 0 -7 3 -2 5 12 5 14 0 19 -2 13
-5z m80 -20 c-7 -2 -21 -2 -30 0 -10 3 -4 5 12 5 17 0 24 -2 18 -5z m10414 1
c-3 -3 -12 -4 -19 -1 -8 3 -5 6 6 6 11 1 17 -2 13 -5z m-10049 -21 c-60 -2
-156 -2 -215 0 -60 1 -11 3 107 3 118 0 167 -2 108 -3z m9779 -79 c-3 -3 -12
-4 -19 -1 -8 3 -5 6 6 6 11 1 17 -2 13 -5z m-110 -40 c-3 -3 -12 -4 -19 -1 -8
3 -5 6 6 6 11 1 17 -2 13 -5z m-170 -60 c-3 -3 -12 -4 -19 -1 -8 3 -5 6 6 6
11 1 17 -2 13 -5z m166 -221 c-7 -2 -19 -2 -25 0 -7 3 -2 5 12 5 14 0 19 -2
13 -5z m85 -20 c-10 -2 -26 -2 -35 0 -10 3 -2 5 17 5 19 0 27 -2 18 -5z m100
-20 c-10 -2 -28 -2 -40 0 -13 2 -5 4 17 4 22 1 32 -1 23 -4z m135 -20 c-13 -2
-35 -2 -50 0 -16 2 -5 4 22 4 28 0 40 -2 28 -4z m330 -20 c-51 -2 -136 -2
-190 0 -54 1 -12 3 92 3 105 0 149 -2 98 -3z m-660 -280 c-13 -2 -33 -2 -45 0
-13 2 -3 4 22 4 25 0 35 -2 23 -4z m-56 -19 c-3 -3 -12 -4 -19 -1 -8 3 -5 6 6
6 11 1 17 -2 13 -5z m-3814 -661 c-166 -2 -440 -2 -610 0 -169 1 -33 2 302 2
336 0 474 -1 308 -2z"/>
<path d="M14487 15883 c-15 -14 -5 -47 31 -101 93 -139 175 -330 213 -492 6
-30 21 -88 31 -129 16 -61 19 -111 19 -302 0 -126 -4 -246 -10 -266 -5 -21
-15 -62 -21 -91 -7 -30 -36 -108 -66 -175 -67 -150 -68 -162 -12 -171 23 -4
44 -3 48 1 10 11 70 198 70 218 0 8 25 64 55 124 91 181 152 372 176 551 9 72
9 97 -5 164 -21 100 -63 201 -128 308 -59 99 -77 118 -236 259 -112 100 -147
121 -165 102z"/>
<path d="M14307 13288 c-73 -92 -150 -211 -174 -270 -13 -34 -44 -100 -67
-147 -24 -47 -49 -103 -56 -125 -7 -21 -32 -71 -56 -112 -74 -125 -155 -337
-176 -459 -5 -33 -14 -82 -19 -110 -34 -188 -44 -646 -21 -925 11 -131 14
-151 32 -235 5 -22 14 -69 20 -105 35 -203 42 -234 110 -440 58 -178 161 -406
239 -534 129 -210 438 -564 621 -711 137 -110 384 -246 592 -326 46 -18 123
-49 171 -70 92 -41 141 -49 150 -25 7 18 -8 36 -63 71 -116 74 -242 179 -414
346 -259 252 -349 365 -623 788 -110 169 -191 314 -219 391 -14 41 -30 80 -34
85 -16 23 -55 135 -122 355 -28 95 -38 167 -68 540 -20 244 -11 697 19 995 7
61 9 127 6 148 -3 20 -1 56 4 80 5 23 15 76 21 117 6 41 22 109 35 150 33 107
137 374 174 447 44 89 39 123 -20 123 -20 0 -37 -11 -62 -42z m-74 -287 c-14
-36 -29 -78 -35 -93 -6 -17 -17 -28 -29 -28 -21 0 -24 11 -10 38 5 9 26 52 47
95 44 93 63 85 27 -12z m1108 -4123 c10 -18 8 -19 -13 -13 -30 9 -42 21 -34
34 9 14 34 3 47 -21z"/>
<path d="M25345 11731 c-11 -5 -47 -19 -80 -31 -75 -28 -249 -129 -304 -177
-36 -30 -142 -157 -218 -258 -45 -60 -153 -252 -183 -325 -37 -90 -103 -286
-120 -355 -6 -27 -17 -70 -23 -95 -17 -64 -16 -353 2 -410 7 -25 22 -74 33
-110 11 -36 32 -85 46 -110 22 -39 26 -61 32 -171 6 -135 21 -179 60 -179 30
0 33 16 20 99 -16 98 2 616 24 696 56 204 182 539 262 698 79 158 292 448 439
598 66 67 84 91 78 105 -12 33 -31 40 -68 25z m-125 -137 c0 -9 -38 -61 -95
-131 -249 -306 -345 -490 -496 -946 -68 -206 -88 -304 -89 -432 0 -96 -13
-143 -25 -89 -4 16 -9 36 -12 44 -34 100 -45 305 -23 408 28 126 35 154 65
247 90 278 172 430 347 647 87 108 136 152 241 214 72 43 87 49 87 38z"/>
<path d="M16127 8803 c-4 -3 -7 -15 -7 -25 0 -17 34 -18 889 -18 702 0 890 3
893 13 14 37 25 37 -886 37 -486 0 -886 -3 -889 -7z"/>
<path d="M14557 22343 c-10 -10 -8 -53 2 -53 5 0 11 10 13 23 3 21 8 22 128
27 l125 6 -131 2 c-72 1 -134 -1 -137 -5z"/>
<path d="M15005 22330 c60 -12 306 -17 302 -5 -2 5 -76 10 -173 11 -111 2
-155 0 -129 -6z"/>
<path d="M14545 22036 c-4 -25 -4 -49 -1 -55 7 -11 122 -8 133 3 4 3 -20 6
-51 6 -42 0 -57 3 -53 13 3 9 86 12 370 12 343 0 367 1 367 18 0 19 -20 23
-36 7 -7 -7 -130 -9 -350 -8 l-339 3 -10 23 c-15 33 -23 27 -30 -22z"/>
<path d="M15183 21973 c-60 -2 -103 -8 -103 -14 0 -15 222 -7 228 9 2 6 -2 11
-10 10 -7 -1 -59 -4 -115 -5z"/>
<path d="M13720 21480 c0 -11 4 -20 9 -20 5 0 7 9 4 20 -3 11 -7 20 -9 20 -2
0 -4 -9 -4 -20z"/>
</g>
</svg>
